<?xml version="1.0" encoding="UTF-8"?> <svg xmlns="http://www.w3.org/2000/svg" id="Layer_1" data-name="Layer 1" viewBox="0 0 1161.72 1691.17"><defs><style>.cls-1{fill:#b79257;}</style></defs><title>Vadakepeedika Family Tree v01a</title><path d="M621.59,54.25v-.83h2.48V36.49h-2.48v-.84h8.78v.84h-2.48v8.12l8.92-8.12h-2.48v-.84H640q-.06.59-.84.84a1.94,1.94,0,0,0-.46.06,4.87,4.87,0,0,0-1.93,1.33l-5,4.56,7.75,11H640a1,1,0,0,1,.84.83l-5.43,0L629.09,45,627.89,46v7.38h1.64a1,1,0,0,1,.84.83Z"></path><path d="M656.34,53.48c.26,0,.4.3.4.77h-5.15l-.15-2.73a7.43,7.43,0,0,1-.53.94,4.65,4.65,0,0,1-4,2.1q-4.39,0-4.43-5.14V41.76h-2V41h5.4v8.93a5.52,5.52,0,0,0,.06.81c.21,1.55,1,2.32,2.36,2.32a2.55,2.55,0,0,0,1.24-.34,4,4,0,0,0,1.79-3.47l0-7.47h-1.86V41h5.27V53.45H656A1.9,1.9,0,0,1,656.34,53.48Z"></path><path d="M665.06,53.48c.27.06.4.32.4.77h-7.13v-.8a3.77,3.77,0,0,0,1-.1c.69-.14,1-.67,1-1.58v-10h-2V41h5.21l.16,2.58a5.35,5.35,0,0,1,.8-1.24,4.86,4.86,0,0,1,3.78-1.77,4.39,4.39,0,0,1,1.74.34c1.69.7,2.54,2.28,2.54,4.71v7.85h1.21a2.22,2.22,0,0,1,.37,0c.27.06.41.32.41.77h-7.1v-.8a2.85,2.85,0,0,0,1-.13c.48-.16.71-.68.71-1.55V45.14A4.73,4.73,0,0,0,669,43.9a2.13,2.13,0,0,0-2.2-1.83,2.45,2.45,0,0,0-1.18.31,4,4,0,0,0-1.86,3.41l0,7.66h1A2.31,2.31,0,0,1,665.06,53.48Z"></path><path d="M680.73,41V53.63a11.41,11.41,0,0,1-.44,3.32A4.24,4.24,0,0,1,676,60.24a4.67,4.67,0,0,1-1.92-.38,2,2,0,0,1-1.46-1.92,1.36,1.36,0,0,1,1.4-1.33,1.41,1.41,0,0,1,1.15.49,8.32,8.32,0,0,1,.46,1.43q.21.9.84.9.93,0,1-2,0-.44-.06-1.74c-.05-1.34-.06-2.37-.06-3.07V41.76h-2.11V41Zm0-3.22a2,2,0,0,1-1.86,1.09,2.33,2.33,0,0,1-1-.22,1.92,1.92,0,0,1-1.14-1.86,2.25,2.25,0,0,1,.24-1,2.06,2.06,0,0,1,2.83-.9,2,2,0,0,1,1.14,1.89A2.13,2.13,0,0,1,680.7,37.76Z"></path><path d="M690,53.48c.31,0,.46.3.46.77H683v-.8a3.82,3.82,0,0,0,1-.1c.68-.16,1-.69,1-1.58v-10h-2V41h5.43V53.45h1.27A1.27,1.27,0,0,1,690,53.48Zm-1.49-15.72a2,2,0,0,1-1.86,1.09,2.32,2.32,0,0,1-1-.22,1.91,1.91,0,0,1-1.15-1.86,2.14,2.14,0,0,1,.25-1,2,2,0,0,1,1.86-1.15,2,2,0,0,1,1,.25,2,2,0,0,1,1.15,1.89A2.14,2.14,0,0,1,688.49,37.76Z"></path><path d="M698.14,59.34a2.43,2.43,0,0,1,.38,0c.26.06.4.32.4.77H691v-.8a3.56,3.56,0,0,0,1.09-.13c.58-.16.87-.68.87-1.55V41.76h-2V41h5.15l.15,3.1a6,6,0,0,1,.9-1.61,5,5,0,0,1,4.13-1.92,4.71,4.71,0,0,1,3.07,1.09c1.46,1.19,2.2,3,2.2,5.58A7.75,7.75,0,0,1,705,52.3a5.92,5.92,0,0,1-4.8,2.26,4.84,4.84,0,0,1-3.78-1.49v6.27Zm0-16.68c-1.2,1.07-1.79,2.92-1.79,5.55a9.55,9.55,0,0,0,.52,3.35,2.93,2.93,0,0,0,2.76,2.2,2.57,2.57,0,0,0,.75-.1c1.67-.49,2.51-2.51,2.51-6,0-3.72-1-5.6-3-5.64A2.66,2.66,0,0,0,698.14,42.66Z"></path><path d="M716.55,51.74a5.22,5.22,0,0,1-.58,1.09,4.59,4.59,0,0,1-3.82,1.73,4.94,4.94,0,0,1-1.61-.25,3.25,3.25,0,0,1-2.32-3.44q0-4.11,8.15-4.24v-2a9,9,0,0,0-.06-1.08c-.21-1.47-.93-2.2-2.17-2.2a2.19,2.19,0,0,0-.9.18,2.47,2.47,0,0,0-1,1.58c-.09.25-.15.43-.19.53A1.62,1.62,0,0,1,710,44.7a1.29,1.29,0,0,1-1-1.36,1.8,1.8,0,0,1,.34-1.05q1.15-1.74,5-1.74a8,8,0,0,1,1.65.16q3.78.74,3.78,4.74V52c0,1,.24,1.51.71,1.55s1-.76,1.12-2.2l.81,0a10.34,10.34,0,0,1-.22,1.49,2.5,2.5,0,0,1-2.73,1.73C717.87,54.54,716.88,53.6,716.55,51.74Zm-2.17,1.33a3.73,3.73,0,0,0,2-2.75V47.49a11.19,11.19,0,0,0-2.54.31,2.55,2.55,0,0,0-2.11,2.67v.31c.08,1.65.7,2.48,1.86,2.48A1.94,1.94,0,0,0,714.38,53.07Z"></path><path d="M730.67,53.48c.31,0,.46.3.46.77h-7.44v-.8a3.85,3.85,0,0,0,1-.1c.68-.16,1-.69,1-1.58v-10h-2V41h5.43V53.45h1.27A1.2,1.2,0,0,1,730.67,53.48Zm-1.49-15.72a2,2,0,0,1-1.86,1.09,2.32,2.32,0,0,1-1-.22,1.91,1.91,0,0,1-1.15-1.86,2.27,2.27,0,0,1,.25-1,2,2,0,0,1,1.86-1.15,2,2,0,0,1,1,.25,2.12,2.12,0,0,1,.9,2.88Z"></path><path d="M740.46,53.48c.27.06.4.32.4.77h-8.15v-.8a5.78,5.78,0,0,0,1.46-.13c.62-.18.93-.72.93-1.61V34.91h-2.39V34.1h5.8V53.45h1.58A2.31,2.31,0,0,1,740.46,53.48Z"></path><path d="M753.13,41.88a6.48,6.48,0,0,1,2.61,5.55,7,7,0,0,1-1.62,4.65,7.25,7.25,0,0,1-9.86,1,6.84,6.84,0,0,1-2.54-5.64A6.76,6.76,0,0,1,743.27,43a7,7,0,0,1,5.58-2.42A7,7,0,0,1,753.13,41.88Zm-7.35,9.21c.42,1.78,1.4,2.67,3,2.67a3.12,3.12,0,0,0,1.39-.31c1.26-.69,1.89-2.69,1.89-6a15.75,15.75,0,0,0-.3-3.41c-.42-1.77-1.41-2.66-3-2.66a3,3,0,0,0-1.58.4c-1.12.72-1.68,2.66-1.68,5.8A16.62,16.62,0,0,0,745.78,51.09Z"></path><path d="M756.53,41.08h2.14V38.13l3.41-.65v3.6h4.34v.8h-4.34v9.4c0,.2,0,.41,0,.62.15,1.17.65,1.76,1.52,1.76s1.75-.95,2.2-2.79l.84.13a6.92,6.92,0,0,1-.5,1.64,3.28,3.28,0,0,1-3.31,2c-2.61-.1-4-1.65-4.19-4.65V41.88h-2.14Z"></path><path d="M774.45,53.48c.27.06.4.32.4.77h-7.19v-.8a4.7,4.7,0,0,0,.9-.07c.72-.14,1.08-.68,1.08-1.61V34.91h-2V34.1h5.39v9.46a6,6,0,0,1,.65-1.15,4.87,4.87,0,0,1,4-1.86,4.44,4.44,0,0,1,1.68.31q2.5,1.05,2.51,4.74v7.85h1.18l.37,0c.27.06.4.32.4.77H777v-.8a2.53,2.53,0,0,0,1-.16c.31-.16.47-.67.47-1.52V45.23a4.85,4.85,0,0,0-.13-1.18,2.22,2.22,0,0,0-2.29-1.92,2.63,2.63,0,0,0-1.24.34c-1.18.68-1.77,2-1.77,3.78v7.2h1Z"></path><path d="M791.28,54.25v-.83h2.48V36.49h-2.48v-.84h8.93v.84h-2.64V53.42h3.54a3.62,3.62,0,0,0,1.52-.31,4.23,4.23,0,0,0,1.89-2.76l.77-2.67h.81L806,54.25Z"></path><path d="M819.07,41.88a6.48,6.48,0,0,1,2.61,5.55,7,7,0,0,1-1.62,4.65,7.23,7.23,0,0,1-9.85,1,7.37,7.37,0,0,1-1-10.1,7,7,0,0,1,5.58-2.42A7,7,0,0,1,819.07,41.88Zm-7.35,9.21c.42,1.78,1.4,2.67,2.95,2.67a3.2,3.2,0,0,0,1.4-.31c1.26-.69,1.89-2.69,1.89-6a15.66,15.66,0,0,0-.31-3.41c-.42-1.77-1.41-2.66-3-2.66a3,3,0,0,0-1.58.4c-1.12.72-1.67,2.66-1.67,5.8A16.72,16.72,0,0,0,811.72,51.09Z"></path><path d="M829.58,53.48c.27.06.4.32.4.77h-7.13v-.8a3.88,3.88,0,0,0,1-.1c.68-.14,1-.67,1-1.58v-10h-2V41h5.21l.15,2.58a5.74,5.74,0,0,1,.81-1.24,4.83,4.83,0,0,1,3.78-1.77,4.39,4.39,0,0,1,1.74.34c1.69.7,2.54,2.28,2.54,4.71v7.85h1.21a2.31,2.31,0,0,1,.37,0c.27.06.4.32.4.77H832v-.8a2.87,2.87,0,0,0,1-.13c.47-.16.71-.68.71-1.55V45.14a4.33,4.33,0,0,0-.16-1.24,2.12,2.12,0,0,0-2.2-1.83,2.51,2.51,0,0,0-1.18.31,4,4,0,0,0-1.85,3.41l0,7.66h1Z"></path><path d="M848.59,51.74a4.84,4.84,0,0,1-.59,1.09,4.58,4.58,0,0,1-3.81,1.73,4.94,4.94,0,0,1-1.61-.25,3.26,3.26,0,0,1-2.33-3.44q0-4.11,8.16-4.24v-2a9,9,0,0,0-.06-1.08c-.21-1.47-.93-2.2-2.17-2.2a2.16,2.16,0,0,0-.9.18,2.47,2.47,0,0,0-1,1.58c-.09.25-.15.43-.19.53A1.62,1.62,0,0,1,842,44.7a1.29,1.29,0,0,1-1-1.36,1.8,1.8,0,0,1,.34-1.05c.76-1.16,2.45-1.74,5-1.74a8,8,0,0,1,1.65.16q3.78.74,3.78,4.74V52c0,1,.24,1.51.71,1.55.62,0,1-.76,1.12-2.2l.8,0a9.2,9.2,0,0,1-.21,1.49,2.5,2.5,0,0,1-2.73,1.73C849.91,54.54,848.92,53.6,848.59,51.74Zm-2.17,1.33a3.73,3.73,0,0,0,2-2.75V47.49a11.11,11.11,0,0,0-2.54.31,2.55,2.55,0,0,0-2.11,2.67v.31c.08,1.65.7,2.48,1.86,2.48A1.94,1.94,0,0,0,846.42,53.07Z"></path><path d="M861.9,59.34a2.22,2.22,0,0,1,.37,0c.27.06.41.32.41.77h-7.91v-.8a3.56,3.56,0,0,0,1.09-.13c.58-.16.86-.68.86-1.55V41.76h-2V41h5.15l.15,3.1a6,6,0,0,1,.9-1.61,5,5,0,0,1,4.13-1.92,4.67,4.67,0,0,1,3.06,1.09q2.21,1.78,2.21,5.58a7.75,7.75,0,0,1-1.65,5.08,5.92,5.92,0,0,1-4.8,2.26,4.88,4.88,0,0,1-3.79-1.49v6.27Zm0-16.68q-1.8,1.61-1.8,5.55a9.53,9.53,0,0,0,.53,3.35,2.93,2.93,0,0,0,2.76,2.2,2.45,2.45,0,0,0,.74-.1c1.68-.49,2.52-2.51,2.52-6,0-3.72-1-5.6-3-5.64A2.66,2.66,0,0,0,861.9,42.66Z"></path><path d="M878.55,59.34a2.31,2.31,0,0,1,.37,0c.27.06.4.32.4.77h-7.9v-.8a3.53,3.53,0,0,0,1.08-.13c.58-.16.87-.68.87-1.55V41.76h-2V41h5.14l.16,3.1a5.47,5.47,0,0,1,.9-1.61,5,5,0,0,1,4.12-1.92,4.69,4.69,0,0,1,3.07,1.09q2.21,1.78,2.2,5.58a7.8,7.8,0,0,1-1.64,5.08,5.93,5.93,0,0,1-4.81,2.26,4.87,4.87,0,0,1-3.78-1.49v6.27Zm0-16.68q-1.8,1.61-1.8,5.55a9.31,9.31,0,0,0,.53,3.35,2.93,2.93,0,0,0,2.76,2.2,2.55,2.55,0,0,0,.74-.1c1.67-.49,2.51-2.51,2.51-6q0-5.58-3-5.64A2.64,2.64,0,0,0,878.55,42.66Z"></path><path d="M897,51.74a5.27,5.27,0,0,1-.59,1.09,4.59,4.59,0,0,1-3.81,1.73,4.9,4.9,0,0,1-1.61-.25,3.25,3.25,0,0,1-2.33-3.44q0-4.11,8.15-4.24v-2a9,9,0,0,0-.06-1.08c-.21-1.47-.93-2.2-2.17-2.2a2.19,2.19,0,0,0-.9.18,2.55,2.55,0,0,0-1,1.58c-.08.25-.14.43-.18.53A1.57,1.57,0,0,1,891,44.8a1.54,1.54,0,0,1-.56-.1,1.3,1.3,0,0,1-1-1.36,1.81,1.81,0,0,1,.35-1.05q1.14-1.74,5-1.74a7.8,7.8,0,0,1,1.64.16q3.78.74,3.78,4.74V52c0,1,.24,1.51.72,1.55s1-.76,1.11-2.2l.81,0a8.14,8.14,0,0,1-.22,1.49,2.5,2.5,0,0,1-2.73,1.73Q897.46,54.53,897,51.74Zm-2.17,1.33a3.75,3.75,0,0,0,2-2.75V47.49a11.19,11.19,0,0,0-2.54.31,2.55,2.55,0,0,0-2.11,2.67v.31c.09,1.65.71,2.48,1.86,2.48A2,2,0,0,0,894.79,53.07Z"></path><path d="M910.77,53.48c.26.06.4.32.4.77H904v-.8a3.88,3.88,0,0,0,1-.1c.68-.14,1-.67,1-1.58v-10h-2V41h5.21l.15,2.58a5.74,5.74,0,0,1,.81-1.24A4.83,4.83,0,0,1,914,40.55a4.39,4.39,0,0,1,1.74.34c1.69.7,2.54,2.28,2.54,4.71v7.85h1.21l.37,0c.27.06.4.32.4.77h-7.1v-.8a2.77,2.77,0,0,0,1-.13c.48-.16.72-.68.72-1.55V45.14a4.33,4.33,0,0,0-.16-1.24,2.12,2.12,0,0,0-2.2-1.83,2.51,2.51,0,0,0-1.18.31,4,4,0,0,0-1.86,3.41l0,7.66h1A2.43,2.43,0,0,1,910.77,53.48Z"></path><path d="M401,221.35v-.83h2.48V203.59H401v-.84h10a7.91,7.91,0,0,1,3.53.72,4.33,4.33,0,0,1,2.6,4.21,5.4,5.4,0,0,1-.49,2.33c-1,2.11-3.24,3.16-6.73,3.16h-2.6v7.35h2.26a1,1,0,0,1,.84.83Zm6.3-17.76v8.65h2.41c2.22-.17,3.32-1.62,3.32-4.37q0-.44,0-.84c-.25-2.29-1.38-3.44-3.41-3.44Z"></path><path d="M426.56,218.84a5.27,5.27,0,0,1-.59,1.09,4.57,4.57,0,0,1-3.82,1.73,5.27,5.27,0,0,1-1.61-.24,3.27,3.27,0,0,1-2.32-3.45q0-4.11,8.15-4.24v-2a9,9,0,0,0-.06-1.08c-.21-1.47-.93-2.2-2.17-2.2a2.19,2.19,0,0,0-.9.18,2.55,2.55,0,0,0-1,1.58c-.08.25-.15.43-.19.53a1.56,1.56,0,0,1-1.55,1.15,1.87,1.87,0,0,1-.56-.09,1.31,1.31,0,0,1-1-1.37,1.87,1.87,0,0,1,.34-1.05c.77-1.16,2.45-1.74,5.06-1.74a7.93,7.93,0,0,1,1.64.16q3.78.74,3.78,4.74v6.51c0,1,.24,1.51.71,1.55.62,0,1-.75,1.12-2.2l.81,0a9.11,9.11,0,0,1-.22,1.49,2.49,2.49,0,0,1-2.73,1.73Q427.06,221.63,426.56,218.84Zm-2.17,1.34a3.79,3.79,0,0,0,2-2.76V214.6a10.15,10.15,0,0,0-2.54.31,2.53,2.53,0,0,0-2.11,2.66v.31c.08,1.66.7,2.48,1.86,2.48A2.13,2.13,0,0,0,424.39,220.18Z"></path><path d="M440.67,220.58c.31,0,.47.3.47.77H433.7v-.8a4.39,4.39,0,0,0,1-.09q1-.26,1-1.59v-10h-2v-.77h5.42v12.46h1.27A1.14,1.14,0,0,1,440.67,220.58Zm-1.49-15.72a2,2,0,0,1-1.86,1.09,2.32,2.32,0,0,1-1-.22,1.92,1.92,0,0,1-1.15-1.86,2.27,2.27,0,0,1,.25-1,2,2,0,0,1,2.82-.9,2.12,2.12,0,0,1,.9,2.88Z"></path><path d="M450.46,220.58c.27.06.41.32.41.77h-8.16v-.8a5.78,5.78,0,0,0,1.46-.13c.62-.18.93-.72.93-1.61V202h-2.39v-.81h5.8v19.35h1.58A2.31,2.31,0,0,1,450.46,220.58Z"></path><path d="M463.13,209a6.49,6.49,0,0,1,2.61,5.55,7.09,7.09,0,0,1-1.61,4.65,7.26,7.26,0,0,1-9.86,1,6.86,6.86,0,0,1-2.55-5.65,6.76,6.76,0,0,1,1.55-4.46,7,7,0,0,1,5.58-2.42A7,7,0,0,1,463.13,209Zm-7.34,9.21q.61,2.67,2.94,2.67a3.2,3.2,0,0,0,1.4-.31q1.89-1,1.89-6a15.66,15.66,0,0,0-.31-3.41c-.42-1.77-1.41-2.66-3-2.66a3,3,0,0,0-1.58.4c-1.12.72-1.67,2.66-1.67,5.8A15.93,15.93,0,0,0,455.79,218.19Z"></path><path d="M466.53,208.18h2.14v-3l3.41-.65v3.6h4.34v.8h-4.34v9.4a4.4,4.4,0,0,0,0,.62c.14,1.18.65,1.77,1.51,1.77,1,0,1.75-1,2.21-2.8l.83.13a7.44,7.44,0,0,1-.49,1.64,3.29,3.29,0,0,1-3.32,1.95c-2.61-.1-4-1.65-4.19-4.65V209h-2.14Z"></path><path d="M484.45,220.58c.27.06.4.32.4.77h-7.19v-.8a5.8,5.8,0,0,0,.9-.06q1.08-.23,1.08-1.62V202h-2v-.81h5.39v9.46a6.08,6.08,0,0,1,.66-1.15,4.85,4.85,0,0,1,4-1.86,4.43,4.43,0,0,1,1.67.31c1.67.7,2.51,2.29,2.51,4.74v7.85h1.18a2.31,2.31,0,0,1,.37,0c.27.06.4.32.4.77H487v-.8a2.5,2.5,0,0,0,1.05-.16c.32-.16.47-.67.47-1.52v-6.54a5.42,5.42,0,0,0-.12-1.18,2.23,2.23,0,0,0-2.3-1.92,2.63,2.63,0,0,0-1.24.34c-1.18.69-1.77,2-1.77,3.79v7.19h1A2.31,2.31,0,0,1,484.45,220.58Z"></path><path d="M725.22,202.75a10.28,10.28,0,0,1,5.55,1.49c2.6,1.65,3.9,4.26,3.9,7.81a8.89,8.89,0,0,1-2.66,6.7,9.48,9.48,0,0,1-6.88,2.6h-8.56v-.8h2.48v-17h-2.48v-.81Zm-3.5.81v17h3.5a6.89,6.89,0,0,0,1.21-.1q5.27-.8,5.27-8.52a14.49,14.49,0,0,0-.47-3.91c-.8-3-2.84-4.46-6.1-4.46Z"></path><path d="M748.92,219.25a5.47,5.47,0,0,1-4.93,2.41,6.69,6.69,0,0,1-3.75-1.08,6.41,6.41,0,0,1-2.76-5.71,8.1,8.1,0,0,1,.87-3.78,5.76,5.76,0,0,1,5.55-3.22,6.73,6.73,0,0,1,3.5.9,3.74,3.74,0,0,1,2.14,3.35,2.05,2.05,0,0,1-.84,1.76q-1.08.78-4.86.72l-3.72-.07a12.37,12.37,0,0,0,.27,2.39c.56,2.58,1.93,3.88,4.1,3.88a4.18,4.18,0,0,0,.59,0,4.26,4.26,0,0,0,3.5-2.66l.77.28A7,7,0,0,1,748.92,219.25ZM742.44,209q-2.18,1.08-2.32,4.65l3.28.09a10.2,10.2,0,0,0,2.2-.13,1.74,1.74,0,0,0,1.49-1.89,3.16,3.16,0,0,0-.25-1.27,2.78,2.78,0,0,0-2.88-1.83A3.23,3.23,0,0,0,742.44,209Z"></path><path d="M754.4,209l4,10.57L762.31,209H760v-.77h4.77a1.71,1.71,0,0,1,0,.31c0,.31-.29.46-.74.46l-.28,0c-.35.07-.65.42-.9,1.06l-4.37,11.47H758a2.32,2.32,0,0,1-.93-.16c-.5-.18-1-.85-1.37-2L752,209h-1.39v-.77h6V209Z"></path><path d="M774.18,218.87a4,4,0,0,1-.83,1.24,5.18,5.18,0,0,1-3.82,1.55,4.52,4.52,0,0,1-1.76-.34,3.19,3.19,0,0,1-2.08-3.22,4,4,0,0,1,.19-1.27q1.05-3,8.33-3v-1.95a2.91,2.91,0,0,0-3-3.2,2.14,2.14,0,0,0-1.83.78,8.05,8.05,0,0,0-.59,1.36q-.35.9-1,.9a1.73,1.73,0,0,1-.32,0,1,1,0,0,1-.89-1.12,1.79,1.79,0,0,1,.37-1.05q1.17-1.6,4.65-1.61h.56q4.42.24,4.43,4.68v6.54c0,1,.3,1.57.84,1.61s1.06-.78,1.21-2.29l.8,0a2.14,2.14,0,0,1,0,.34c-.16,1.92-1,2.88-2.63,2.88S774.43,220.71,774.18,218.87ZM772,220.11a4.07,4.07,0,0,0,2.26-3v-2.48a19,19,0,0,0-3.68.31c-1.6.37-2.39,1.25-2.39,2.63a4.75,4.75,0,0,0,.09,1,2.19,2.19,0,0,0,2.33,1.89A3.4,3.4,0,0,0,772,220.11Z"></path><path d="M785.67,220.83a3,3,0,0,0,2.89-1.31,2,2,0,0,0,.28-1c0-.87-.63-1.61-1.89-2.23-.27-.15-.72-.35-1.34-.62a9.9,9.9,0,0,1-3.38-2,3.51,3.51,0,0,1-.89-2.39,3.08,3.08,0,0,1,2.35-3,6.68,6.68,0,0,1,2.36-.4,6.87,6.87,0,0,1,3.53.87c0-.6.15-.94.43-1a2.63,2.63,0,0,1,.41,0v3.88h-.81c0-1.9-1.09-2.87-3.16-2.89-1.55,0-2.51.46-2.88,1.37a1.87,1.87,0,0,0-.16.77c0,.89.64,1.65,1.92,2.27.29.14.75.34,1.37.59a9.63,9.63,0,0,1,3.35,2A3.37,3.37,0,0,1,791,218a3.31,3.31,0,0,1-2.67,3.35,7,7,0,0,1-2.23.34,7.1,7.1,0,0,1-3.88-1.11c0,.53-.13.84-.4.93a2.81,2.81,0,0,1-.43,0V216.8h.86C782.24,219.46,783.4,220.81,785.67,220.83Z"></path><path d="M798,220.83a3,3,0,0,0,2.88-1.31,1.91,1.91,0,0,0,.28-1c0-.87-.63-1.61-1.89-2.23-.27-.15-.71-.35-1.33-.62a9.8,9.8,0,0,1-3.38-2,3.52,3.52,0,0,1-.9-2.39,3.08,3.08,0,0,1,2.35-3,6.72,6.72,0,0,1,2.36-.4,6.91,6.91,0,0,1,3.54.87c0-.6.14-.94.43-1a2.5,2.5,0,0,1,.4,0v3.88H802c-.05-1.9-1.1-2.87-3.17-2.89-1.55,0-2.51.46-2.88,1.37a2,2,0,0,0-.15.77c0,.89.64,1.65,1.92,2.27.29.14.74.34,1.36.59a9.53,9.53,0,0,1,3.35,2,3.37,3.37,0,0,1,.9,2.35,3.31,3.31,0,0,1-2.67,3.35,6.91,6.91,0,0,1-2.23.34,7,7,0,0,1-3.87-1.11c0,.53-.14.84-.41.93a2.72,2.72,0,0,1-.43,0V216.8h.87C794.58,219.46,795.74,220.81,798,220.83Z"></path><path d="M808.67,226.1q1.51-.66,3.26-4.75L806.35,209h-1.52v-.8h6v.8H808.8L813,218.9l4-9.92h-2.26v-.8h4.71a1.51,1.51,0,0,1-.06.46c-.06.23-.3.34-.71.34a1.51,1.51,0,0,0-.5.07c-.25.08-.48.41-.68,1l-4.59,11.31a20,20,0,0,1-1.43,2.89q-1.8,3-4.24,3a3.62,3.62,0,0,1-1.31-.24,1.8,1.8,0,0,1-1.36-1.71,1,1,0,0,1,0-.22,1,1,0,0,1,1.15-.86,1.18,1.18,0,0,1,.65.18,2.61,2.61,0,0,1,.65,1.15c.16.49.41.74.74.74A2.26,2.26,0,0,0,808.67,226.1Z"></path><path d="M1054.57,204.27a9.1,9.1,0,0,1,3.56,7.78,9.33,9.33,0,0,1-2.94,7.13,8.83,8.83,0,0,1-6.29,2.48,9.06,9.06,0,0,1-5.77-2,9.33,9.33,0,0,1-3.44-7.75,9.15,9.15,0,0,1,9.3-9.49A9,9,0,0,1,1054.57,204.27Zm-3.29,16.06q3.75-1.64,3.75-8.4,0-8.55-6.13-8.62a6.78,6.78,0,0,0-1.65.19q-4.45,1.17-4.46,8.55a16.05,16.05,0,0,0,.43,3.94c.85,3.2,2.77,4.81,5.77,4.81A5.58,5.58,0,0,0,1051.28,220.33Z"></path><path d="M1076.1,220.61c.31,0,.47.29.47.74h-4.37l-.22-3.16a6.29,6.29,0,0,1-.9,1.58,4.63,4.63,0,0,1-3.81,1.89c-2.94,0-4.42-1.79-4.44-5.33V209h-2.38v-.77h4.71v8.62a6.81,6.81,0,0,0,.06.93,2.72,2.72,0,0,0,3,2.6,3.14,3.14,0,0,0,1.79-.59,4.55,4.55,0,0,0,2-4.09V209h-2.54v-.77h4.86v12.4h1.55A1.3,1.3,0,0,1,1076.1,220.61Z"></path><path d="M1083.19,220.83a3,3,0,0,0,2.88-1.31,1.91,1.91,0,0,0,.28-1c0-.87-.63-1.61-1.89-2.23-.27-.14-.71-.35-1.33-.62a9.8,9.8,0,0,1-3.38-2,3.52,3.52,0,0,1-.9-2.39,3.09,3.09,0,0,1,2.36-3,6.63,6.63,0,0,1,2.35-.4,6.91,6.91,0,0,1,3.54.87c0-.6.14-.94.43-1a2.5,2.5,0,0,1,.4,0v3.88h-.8c0-1.9-1.1-2.86-3.16-2.89-1.55,0-2.52.46-2.89,1.37a2,2,0,0,0-.15.77c0,.89.64,1.65,1.92,2.27.29.14.74.34,1.36.59a9.53,9.53,0,0,1,3.35,2,3.39,3.39,0,0,1,.9,2.35,3.31,3.31,0,0,1-2.66,3.35,7.39,7.39,0,0,1-6.11-.77c0,.54-.14.85-.41.93a2.63,2.63,0,0,1-.43,0V216.8h.87C1079.76,219.46,1080.92,220.81,1083.19,220.83Z"></path><path d="M1102.14,219.25a5.48,5.48,0,0,1-4.93,2.41,6.65,6.65,0,0,1-3.75-1.08,6.41,6.41,0,0,1-2.76-5.71,8.22,8.22,0,0,1,.86-3.78,5.78,5.78,0,0,1,5.55-3.22,6.77,6.77,0,0,1,3.51.9,3.75,3.75,0,0,1,2.14,3.35,2.05,2.05,0,0,1-.84,1.76c-.72.52-2.35.76-4.87.72l-3.72-.07a12.34,12.34,0,0,0,.28,2.39c.56,2.58,1.92,3.88,4.09,3.88l.59,0a4.32,4.32,0,0,0,3.51-2.67l.77.28A8.76,8.76,0,0,1,1102.14,219.25ZM1095.66,209q-2.17,1.08-2.33,4.65l3.29.09a10.25,10.25,0,0,0,2.2-.13,1.74,1.74,0,0,0,1.49-1.89,3.38,3.38,0,0,0-.25-1.27,2.8,2.8,0,0,0-2.88-1.83A3.2,3.2,0,0,0,1095.66,209Z"></path><path d="M1110.93,226.47a1.35,1.35,0,0,1,.31,0c.31,0,.46.29.46.74h-7.59v-.77a5,5,0,0,0,1.52-.16c.53-.18.8-.75.8-1.7V209h-2.32v-.77h4.46l.16,3.38a6.75,6.75,0,0,1,.62-1.3,4.92,4.92,0,0,1,4.49-2.39,4.75,4.75,0,0,1,3.32,1.24,7,7,0,0,1,1.95,5.36,7.41,7.41,0,0,1-1.8,5.12,6,6,0,0,1-4.61,2.07,6.35,6.35,0,0,1-3.94-1.61v6.42Zm-.13-16.68q-2.07,1.54-2.07,5.58a8.78,8.78,0,0,0,.46,3,3.32,3.32,0,0,0,3.29,2.51,3.52,3.52,0,0,0,1.55-.34q2.45-1.22,2.45-5.77a11.34,11.34,0,0,0-.22-2.29c-.48-2.26-1.61-3.38-3.41-3.38A3.43,3.43,0,0,0,1110.8,209.79Z"></path><path d="M1127.07,220.61c.31,0,.46.29.46.74h-7v-.77a5,5,0,0,0,1.52-.16c.53-.18.8-.75.8-1.7V202h-2.32v-.78h4.65v10a4.91,4.91,0,0,1,1-1.61,5,5,0,0,1,3.84-1.67,4.1,4.1,0,0,1,1.86.43q2.24,1.22,2.24,4.59v7.69h1.55a1.42,1.42,0,0,1,.31,0c.31,0,.46.29.46.74h-6.82v-.77a4.73,4.73,0,0,0,1.49-.16c.45-.18.68-.75.68-1.7v-5.83a4.85,4.85,0,0,0-.34-1.86,2.66,2.66,0,0,0-2.64-1.77,3,3,0,0,0-1.67.53,4.52,4.52,0,0,0-2,4.09v6.7h1.55A1.42,1.42,0,0,1,1127.07,220.61Z"></path><path d="M151,393.32v-.81h2.48v-17H151v-.81h7.6v.81h-2.45v8.37l9.08-8.37h-2.48v-.81h5.58a1.55,1.55,0,0,1,0,.31c-.06.34-.32.5-.77.5a2.74,2.74,0,0,0-.59.06,5.27,5.27,0,0,0-1.74,1.24L159.69,382l8.1,10.54h.83a1.55,1.55,0,0,1,.31,0c.33.06.5.32.5.78h-4.31l-7.35-9.55-1.61,1.52v7.22h1.64a1.55,1.55,0,0,1,.31,0c.33.06.5.32.5.78Z"></path><path d="M184.9,392.57c.31,0,.46.29.46.75H181l-.22-3.17a6,6,0,0,1-.9,1.58,4.62,4.62,0,0,1-3.81,1.9c-2.94,0-4.41-1.8-4.43-5.34v-7.37h-2.39v-.78H174v8.62a6.81,6.81,0,0,0,.06.93,2.72,2.72,0,0,0,3,2.6,3.12,3.12,0,0,0,1.8-.59,4.56,4.56,0,0,0,2-4.09v-6.69h-2.54v-.78H183v12.4h1.56A1.42,1.42,0,0,1,184.9,392.57Z"></path><path d="M193.69,392.57c.31,0,.46.29.46.75h-6.82v-.78a5.43,5.43,0,0,0,1.52-.15q.81-.28.81-1.71v-9.76h-2.33v-.78h4.5l.12,3.1a6.29,6.29,0,0,1,.9-1.58,4.66,4.66,0,0,1,3.78-1.83,4.13,4.13,0,0,1,2.14.59,4.81,4.81,0,0,1,2.14,4.43v7.69h1.55a1.3,1.3,0,0,1,.31,0c.31,0,.47.29.47.75h-7v-.78a5.48,5.48,0,0,0,1.52-.15q.81-.28.81-1.71v-6.14a4.32,4.32,0,0,0-.28-1.61,2.54,2.54,0,0,0-2.57-1.77,3.2,3.2,0,0,0-1.71.53,4.81,4.81,0,0,0-2.05,4.15v6.7h1.4A1.35,1.35,0,0,1,193.69,392.57Z"></path><path d="M208.75,380.14v13.58a7,7,0,0,1-.83,3.56,3.72,3.72,0,0,1-3.32,1.93,3.46,3.46,0,0,1-1.27-.25,1.8,1.8,0,0,1-1.34-1.65,1.39,1.39,0,0,1,0-.27,1.06,1.06,0,0,1,1.15-.84,1.1,1.1,0,0,1,.62.18,2.94,2.94,0,0,1,.53,1.21q.21.84.84.84c.78,0,1.21-1,1.27-3v-14.5H204v-.78Zm.16-3.81a1.54,1.54,0,0,1-1.52,1,1.79,1.79,0,0,1-.68-.13,1.56,1.56,0,0,1-1-1.58,1.63,1.63,0,0,1,.16-.71,1.6,1.6,0,0,1,1.55-1,1.89,1.89,0,0,1,.71.15,1.6,1.6,0,0,1,1,1.55A1.79,1.79,0,0,1,208.91,376.33Z"></path><path d="M227,392.57c.31,0,.46.29.46.75h-4.37l-.22-3.17a6.29,6.29,0,0,1-.9,1.58,4.62,4.62,0,0,1-3.81,1.9c-2.94,0-4.41-1.8-4.43-5.34v-7.37h-2.39v-.78h4.71v8.62a6.81,6.81,0,0,0,.06.93,2.72,2.72,0,0,0,2.95,2.6,3.12,3.12,0,0,0,1.8-.59,4.56,4.56,0,0,0,1.95-4.09v-6.69h-2.54v-.78h4.86v12.4h1.55A1.45,1.45,0,0,1,227,392.57Z"></path><path d="M231.68,380.92l4,10.57,3.94-10.57h-2.32v-.78H242a1.63,1.63,0,0,1,0,.31c0,.31-.29.47-.75.47l-.27,0c-.36.06-.65.41-.9,1.05l-4.37,11.47h-.41a2.52,2.52,0,0,1-.93-.15c-.49-.19-.95-.86-1.36-2l-3.78-10.38h-1.4v-.78h6v.78Z"></path><path d="M251.47,390.84a4.53,4.53,0,0,1-.84,1.24,5.18,5.18,0,0,1-3.81,1.55,4.62,4.62,0,0,1-1.77-.35,3.2,3.2,0,0,1-2.08-3.22,4.33,4.33,0,0,1,.19-1.27q1.05-3,8.34-3V383.8a2.92,2.92,0,0,0-3-3.2,2.15,2.15,0,0,0-1.83.78,9.05,9.05,0,0,0-.59,1.36q-.33.9-1,.9a1.63,1.63,0,0,1-.31,0,1,1,0,0,1-.9-1.11,1.8,1.8,0,0,1,.37-1.06q1.19-1.6,4.65-1.61h.56c3,.17,4.43,1.73,4.43,4.68v6.54c0,1,.3,1.57.84,1.61s1.07-.78,1.21-2.29l.81,0a2.14,2.14,0,0,1,0,.34c-.17,1.92-1,2.89-2.64,2.89S251.72,392.68,251.47,390.84Zm-2.23,1.24a4.13,4.13,0,0,0,2.26-3v-2.48a19.22,19.22,0,0,0-3.69.31c-1.59.37-2.39,1.25-2.39,2.63a4.68,4.68,0,0,0,.09,1,2.19,2.19,0,0,0,2.33,1.9A3.62,3.62,0,0,0,249.24,392.08Z"></path><path d="M265.39,392.57c.31,0,.46.29.46.75h-7.66v-.78a5.43,5.43,0,0,0,1.52-.15q.81-.28.81-1.71v-9.76h-2.33v-.78h4.5l.12,3.07a6,6,0,0,1,1.09-1.68,4.43,4.43,0,0,1,3.32-1.58,2.41,2.41,0,0,1,.58.07,1.6,1.6,0,0,1,1.43,1.7,1.19,1.19,0,0,1-.06.37,1.12,1.12,0,0,1-1.18.9,1.19,1.19,0,0,1-.37-.06q-.44-.12-.93-1t-1-.78a2.1,2.1,0,0,0-1.15.68,6.07,6.07,0,0,0-1.74,4.53v6.17h2.24A1.42,1.42,0,0,1,265.39,392.57Z"></path><path d="M281.91,391.21a5.47,5.47,0,0,1-4.93,2.42,6.7,6.7,0,0,1-3.75-1.09,6.4,6.4,0,0,1-2.76-5.7,8.11,8.11,0,0,1,.87-3.79,5.76,5.76,0,0,1,5.55-3.22,6.73,6.73,0,0,1,3.5.9,3.75,3.75,0,0,1,2.14,3.35,2.05,2.05,0,0,1-.84,1.76q-1.08.78-4.86.72l-3.72-.06a12.36,12.36,0,0,0,.27,2.38q.84,3.89,4.1,3.88l.59,0a4.3,4.3,0,0,0,3.5-2.67l.77.28A7,7,0,0,1,281.91,391.21ZM275.43,381q-2.18,1.08-2.32,4.65l3.28.09a11,11,0,0,0,2.2-.12,1.75,1.75,0,0,0,1.49-1.89,3.21,3.21,0,0,0-.25-1.28A2.78,2.78,0,0,0,277,380.6,3.23,3.23,0,0,0,275.43,381Z"></path><path d="M296.12,391.21a5.49,5.49,0,0,1-4.93,2.42,6.66,6.66,0,0,1-3.75-1.09,6.4,6.4,0,0,1-2.76-5.7,8.11,8.11,0,0,1,.87-3.79,5.75,5.75,0,0,1,5.54-3.22,6.74,6.74,0,0,1,3.51.9,3.77,3.77,0,0,1,2.14,3.35,2.05,2.05,0,0,1-.84,1.76c-.72.52-2.35.76-4.87.72l-3.72-.06a12.33,12.33,0,0,0,.28,2.38q.84,3.89,4.09,3.88l.59,0a4.3,4.3,0,0,0,3.51-2.67l.77.28A8.76,8.76,0,0,1,296.12,391.21ZM289.64,381c-1.45.72-2.22,2.27-2.33,4.65l3.29.09a11.09,11.09,0,0,0,2.2-.12,1.76,1.76,0,0,0,1.49-1.89,3.21,3.21,0,0,0-.25-1.28,2.8,2.8,0,0,0-2.88-1.83A3.2,3.2,0,0,0,289.64,381Z"></path><path d="M309.22,390c-1,2.36-2.65,3.55-4.9,3.6a5.05,5.05,0,0,1-3-1q-2.42-1.76-2.42-5.61a8.35,8.35,0,0,1,1.06-4.18,5.56,5.56,0,0,1,5.14-3,5.29,5.29,0,0,1,4.1,1.67v-7.56h-2.95v-.78h5.27l.06,19.38h1.55a1.3,1.3,0,0,1,.31,0c.31,0,.47.29.47.75h-4.43Zm-7.38-.74c.52,2.06,1.62,3.1,3.32,3.1a3.28,3.28,0,0,0,2.26-.9q1.86-1.68,1.86-5.4a8.18,8.18,0,0,0-.53-3.07,3.39,3.39,0,0,0-4.86-2c-1.58.87-2.36,2.76-2.36,5.67A9.94,9.94,0,0,0,301.84,389.29Z"></path><path d="M322.36,392.57c.31,0,.47.29.47.75h-7v-.78a5.48,5.48,0,0,0,1.52-.15q.81-.28.81-1.71V373.94h-2.33v-.78h4.65v10a5.2,5.2,0,0,1,1-1.62,5.07,5.07,0,0,1,3.85-1.67,4.1,4.1,0,0,1,1.86.43c1.48.81,2.23,2.34,2.23,4.59v7.69H331a1.35,1.35,0,0,1,.31,0c.31,0,.46.29.46.75h-6.82v-.78a5.09,5.09,0,0,0,1.49-.15c.46-.19.68-.76.68-1.71v-5.83a4.85,4.85,0,0,0-.34-1.86,2.64,2.64,0,0,0-2.63-1.77,3.05,3.05,0,0,0-1.68.53,4.52,4.52,0,0,0-1.95,4.09v6.7h1.55A1.35,1.35,0,0,1,322.36,392.57Z"></path><path d="M566.46,393.32v-.84h2.48V375.55h-2.48v-.84h8.77v.84h-2.48v8.12l8.93-8.12H579.2v-.84h5.7c0,.4-.32.68-.83.84a2,2,0,0,0-.47.06,5,5,0,0,0-1.92,1.34l-5,4.55,7.75,11h.46a.93.93,0,0,1,.84.84l-5.43,0L574,384l-1.21,1.08v7.38h1.64a.93.93,0,0,1,.84.84Z"></path><path d="M601.2,392.54c.27,0,.4.3.4.78h-5.14l-.16-2.73a7.23,7.23,0,0,1-.52.93,4.69,4.69,0,0,1-4,2.11c-2.94,0-4.42-1.74-4.44-5.15v-7.66h-2v-.77h5.39V389a4.4,4.4,0,0,0,.07.8c.2,1.55,1,2.33,2.35,2.33a2.63,2.63,0,0,0,1.24-.34,4,4,0,0,0,1.8-3.48l0-7.47h-1.86v-.77h5.27v12.46h1.21A1.79,1.79,0,0,1,601.2,392.54Z"></path><path d="M609.92,392.54c.27.06.41.32.41.78H603.2v-.81a4.48,4.48,0,0,0,1-.09c.68-.15,1-.67,1-1.58v-10h-2v-.77h5.21l.15,2.57a6,6,0,0,1,.81-1.24,4.83,4.83,0,0,1,3.78-1.77,4.48,4.48,0,0,1,1.73.34q2.55,1.07,2.55,4.72v7.84h1.21l.37,0c.27.06.4.32.4.78h-7.1v-.81a3.07,3.07,0,0,0,1-.12c.48-.17.72-.69.72-1.55V384.2a4.38,4.38,0,0,0-.16-1.24,2.12,2.12,0,0,0-2.2-1.83,2.63,2.63,0,0,0-1.18.31,4,4,0,0,0-1.86,3.41l0,7.66h1A2.22,2.22,0,0,1,609.92,392.54Z"></path><path d="M625.59,380.05V392.7a11.36,11.36,0,0,1-.43,3.31,4.25,4.25,0,0,1-4.31,3.29,4.85,4.85,0,0,1-1.93-.37,2,2,0,0,1-1.45-1.93,1.55,1.55,0,0,1,.06-.4,1.22,1.22,0,0,1,1.33-.93,1.4,1.4,0,0,1,1.15.5,7.47,7.47,0,0,1,.47,1.42c.14.6.42.9.83.9q.93,0,1-2,0-.43-.06-1.74c0-1.34-.06-2.36-.06-3.07V380.82H620v-.77Zm0-3.23a2,2,0,0,1-1.86,1.09,2.17,2.17,0,0,1-1-.22,1.91,1.91,0,0,1-1.15-1.86,2.14,2.14,0,0,1,.25-1,2,2,0,0,1,1.86-1.15,2,2,0,0,1,1,.25,2,2,0,0,1,1.15,1.89A2.14,2.14,0,0,1,625.56,376.82Z"></path><path d="M634.84,392.54c.31,0,.47.3.47.78h-7.44v-.81a4.39,4.39,0,0,0,1-.09c.68-.17,1-.7,1-1.58v-10h-2v-.77h5.42v12.46h1.27A1.14,1.14,0,0,1,634.84,392.54Zm-1.49-15.72a2,2,0,0,1-1.86,1.09,2.17,2.17,0,0,1-1-.22,1.92,1.92,0,0,1-1.15-1.86,2.27,2.27,0,0,1,.25-1,2,2,0,0,1,1.86-1.15,2,2,0,0,1,1,.25,2.12,2.12,0,0,1,.9,2.88Z"></path><path d="M643,398.4a2.31,2.31,0,0,1,.37,0c.27.06.4.32.4.78h-7.9v-.81a3.92,3.92,0,0,0,1.08-.12c.58-.17.87-.69.87-1.55V380.82h-2v-.77H641l.16,3.1a5.4,5.4,0,0,1,.9-1.62,5,5,0,0,1,4.12-1.92,4.69,4.69,0,0,1,3.07,1.09q2.21,1.8,2.2,5.58a7.8,7.8,0,0,1-1.64,5.08,5.94,5.94,0,0,1-4.81,2.27,4.94,4.94,0,0,1-3.78-1.49v6.26Zm0-16.68q-1.8,1.62-1.8,5.55a9.31,9.31,0,0,0,.53,3.35,2.87,2.87,0,0,0,3.5,2.11c1.67-.5,2.51-2.51,2.51-6.05q0-5.58-3-5.64A2.69,2.69,0,0,0,643,381.72Z"></path><path d="M661.42,390.8a5,5,0,0,1-.59,1.09,4.57,4.57,0,0,1-3.81,1.74,5.29,5.29,0,0,1-1.62-.25,3.26,3.26,0,0,1-2.32-3.44q0-4.12,8.15-4.25v-2a9.06,9.06,0,0,0-.06-1.09c-.21-1.47-.93-2.2-2.17-2.2a2.19,2.19,0,0,0-.9.18,2.55,2.55,0,0,0-1,1.59c-.08.24-.14.42-.18.52a1.57,1.57,0,0,1-1.56,1.15,1.76,1.76,0,0,1-.55-.09,1.3,1.3,0,0,1-1-1.37,1.81,1.81,0,0,1,.35-1q1.14-1.74,5-1.74a7.8,7.8,0,0,1,1.64.16q3.78.74,3.78,4.74V391c0,1,.24,1.51.72,1.55s1-.75,1.11-2.2l.81,0a8,8,0,0,1-.22,1.49,2.5,2.5,0,0,1-2.73,1.74C662.73,393.6,661.75,392.66,661.42,390.8Zm-2.17,1.34a3.79,3.79,0,0,0,2-2.76v-2.82a10.15,10.15,0,0,0-2.54.31,2.54,2.54,0,0,0-2.11,2.66v.31c.09,1.66.71,2.48,1.86,2.48A2.13,2.13,0,0,0,659.25,392.14Z"></path><path d="M675.53,392.54c.31,0,.47.3.47.78h-7.44v-.81a4.39,4.39,0,0,0,1-.09c.68-.17,1-.7,1-1.58v-10h-2v-.77H674v12.46h1.27A1.14,1.14,0,0,1,675.53,392.54Zm-1.48-15.72a2,2,0,0,1-1.86,1.09,2.19,2.19,0,0,1-1-.22,1.92,1.92,0,0,1-1.14-1.86,2.14,2.14,0,0,1,.25-1,2,2,0,0,1,1.86-1.15,2,2,0,0,1,1,.25,2,2,0,0,1,1.14,1.89A2.13,2.13,0,0,1,674.05,376.82Z"></path><path d="M685.33,392.54c.26.06.4.32.4.78h-8.16v-.81a6.36,6.36,0,0,0,1.46-.12q.93-.28.93-1.62V374h-2.39v-.81h5.8v19.35H685A2.43,2.43,0,0,1,685.33,392.54Z"></path><path d="M698,381a6.48,6.48,0,0,1,2.6,5.55,7.13,7.13,0,0,1-1.61,4.65A7.09,7.09,0,0,1,688.14,382a6.92,6.92,0,0,1,5.58-2.42A7,7,0,0,1,698,381Zm-7.35,9.2q.61,2.67,2.94,2.67a3.06,3.06,0,0,0,1.4-.31c1.26-.68,1.89-2.69,1.89-6a15.1,15.1,0,0,0-.31-3.42c-.41-1.77-1.41-2.66-3-2.66a3,3,0,0,0-1.58.4q-1.66,1.1-1.67,5.8A15.93,15.93,0,0,0,690.65,390.15Z"></path><path d="M701.4,380.14h2.14v-2.95l3.41-.65v3.6h4.34V381H707v9.39c0,.21,0,.41,0,.62.14,1.18.65,1.77,1.52,1.77s1.74-1,2.2-2.79l.83.12a6.94,6.94,0,0,1-.49,1.64,3.29,3.29,0,0,1-3.32,2c-2.6-.11-4-1.66-4.18-4.65V381H701.4Z"></path><path d="M719.31,392.54c.27.06.4.32.4.78h-7.19v-.81a5.8,5.8,0,0,0,.9-.06c.72-.15,1.09-.68,1.09-1.61V374h-2v-.81h5.4v9.46a5.53,5.53,0,0,1,.65-1.15,4.85,4.85,0,0,1,4-1.86,4.59,4.59,0,0,1,1.67.31c1.68.71,2.51,2.29,2.51,4.75v7.84h1.18a2.31,2.31,0,0,1,.37,0c.27.06.41.32.41.78h-6.89v-.81a2.58,2.58,0,0,0,1.06-.16c.31-.16.46-.67.46-1.51v-6.55a5.26,5.26,0,0,0-.12-1.17,2.23,2.23,0,0,0-2.3-1.93,2.67,2.67,0,0,0-1.24.34c-1.17.69-1.76,2-1.76,3.79v7.19h1A2.31,2.31,0,0,1,719.31,392.54Z"></path><path d="M542.54,574.23v-.81H545v-17h-2.48v-.8h7.6v.8h-2.45v8.37l9.08-8.37h-2.48v-.8h5.58a1.71,1.71,0,0,1,0,.31c-.06.33-.32.49-.77.49a2.22,2.22,0,0,0-.59.07,4.88,4.88,0,0,0-1.74,1.24l-5.52,5.14,8.09,10.54h.84a1.63,1.63,0,0,1,.31,0c.33.07.5.32.5.78h-4.31l-7.35-9.55-1.61,1.52v7.22h1.64a1.63,1.63,0,0,1,.31,0c.33.07.5.32.5.78Z"></path><path d="M572.17,561.83a6.45,6.45,0,0,1,2.88,5.79,6.75,6.75,0,0,1-1.8,4.81,6.4,6.4,0,0,1-4.92,2.11,6.64,6.64,0,0,1-6.7-7,6.5,6.5,0,0,1,1.83-4.71,6.59,6.59,0,0,1,5-2A6.81,6.81,0,0,1,572.17,561.83ZM564.48,570q.81,3.72,3.94,3.72a4.48,4.48,0,0,0,1.15-.15q2.85-.9,2.85-6.11a13.62,13.62,0,0,0-.09-1.64c-.38-2.9-1.71-4.34-4-4.34a4,4,0,0,0-1.43.25q-2.64,1.05-2.64,5.85A12.71,12.71,0,0,0,564.48,570Z"></path><path d="M578.13,564.12a5.91,5.91,0,0,1,5.8-3.38,6.77,6.77,0,0,1,3.1.72c1.34.68,2,1.55,2,2.6a1.53,1.53,0,0,1-.07.4,1.16,1.16,0,0,1-1.33.87,1.68,1.68,0,0,1-.68-.19c-.33-.2-.56-.72-.68-1.55-.07-.35-.12-.6-.16-.77-.23-.87-.9-1.3-2-1.3a3.63,3.63,0,0,0-2,.56c-1.42.91-2.14,2.71-2.14,5.42a8.06,8.06,0,0,0,.93,4,3.81,3.81,0,0,0,3.44,2.2,4.19,4.19,0,0,0,.5,0,4.4,4.4,0,0,0,3.78-2.7l.81.28a5.56,5.56,0,0,1-.59,1,5.64,5.64,0,0,1-4.87,2.27,6.73,6.73,0,0,1-3.87-1.15,6.31,6.31,0,0,1-2.76-5.61A8.47,8.47,0,0,1,578.13,564.12Z"></path><path d="M597,573.48c.31,0,.47.29.47.75h-7v-.78a5.48,5.48,0,0,0,1.52-.15c.54-.19.8-.76.8-1.71V554.85h-2.32v-.77h4.65V564a5.12,5.12,0,0,1,4.84-3.29,4.11,4.11,0,0,1,1.86.44c1.48.8,2.23,2.33,2.23,4.58v7.69h1.55a1.35,1.35,0,0,1,.31,0c.31,0,.46.29.46.75H599.6v-.78a5.09,5.09,0,0,0,1.49-.15c.46-.19.68-.76.68-1.71v-5.83a4.85,4.85,0,0,0-.34-1.86,2.65,2.65,0,0,0-2.63-1.76,3,3,0,0,0-1.68.52,4.54,4.54,0,0,0-2,4.1v6.69h1.55A1.35,1.35,0,0,1,597,573.48Z"></path><path d="M622.25,573.48c.31,0,.46.29.46.75h-4.37l-.22-3.16a6.66,6.66,0,0,1-.9,1.58,4.63,4.63,0,0,1-3.81,1.89c-2.94,0-4.41-1.8-4.43-5.33v-7.38h-2.39v-.78h4.71v8.62a6.81,6.81,0,0,0,.06.93,2.72,2.72,0,0,0,2.95,2.61,3.19,3.19,0,0,0,1.8-.59,4.58,4.58,0,0,0,1.95-4.1v-6.69h-2.54v-.78h4.86v12.4h1.55A1.45,1.45,0,0,1,622.25,573.48Z"></path><path d="M630.83,574.23v-.81h2.48v-17h-2.48v-.8h7.6v.8H636v8.37l9.08-8.37h-2.48v-.8h5.58a1.71,1.71,0,0,1,0,.31c-.06.33-.32.49-.77.49a2.22,2.22,0,0,0-.59.07,4.88,4.88,0,0,0-1.74,1.24l-5.52,5.14,8.09,10.54h.84a1.63,1.63,0,0,1,.31,0c.33.07.5.32.5.78h-4.31l-7.35-9.55L636,566.2v7.22h1.64a1.55,1.55,0,0,1,.31,0c.33.07.5.32.5.78Z"></path><path d="M664.71,573.48c.31,0,.47.29.47.75h-4.37l-.22-3.16a6.66,6.66,0,0,1-.9,1.58,4.63,4.63,0,0,1-3.81,1.89c-2.94,0-4.41-1.8-4.44-5.33v-7.38h-2.38v-.78h4.71v8.62a6.81,6.81,0,0,0,.06.93,2.72,2.72,0,0,0,2.95,2.61,3.19,3.19,0,0,0,1.8-.59,4.58,4.58,0,0,0,1.95-4.1v-6.69H658v-.78h4.86v12.4h1.55A1.3,1.3,0,0,1,664.71,573.48Z"></path><path d="M673.51,573.48c.31,0,.46.29.46.75h-6.82v-.78a5.48,5.48,0,0,0,1.52-.15q.81-.28.81-1.71v-9.76h-2.33v-.78h4.5l.12,3.1a6.47,6.47,0,0,1,.9-1.58,4.66,4.66,0,0,1,3.78-1.83,4.13,4.13,0,0,1,2.14.59,4.81,4.81,0,0,1,2.14,4.43v7.69h1.55a1.3,1.3,0,0,1,.31,0c.31,0,.47.29.47.75h-7v-.78a5.48,5.48,0,0,0,1.52-.15q.81-.28.81-1.71v-6.14a4.57,4.57,0,0,0-.28-1.61,2.55,2.55,0,0,0-2.58-1.76,3.18,3.18,0,0,0-1.7.52,4.79,4.79,0,0,0-2.05,4.16v6.69h1.4A1.42,1.42,0,0,1,673.51,573.48Z"></path><path d="M688.57,561.05v13.58a6.94,6.94,0,0,1-.84,3.57,3.68,3.68,0,0,1-3.31,1.92,3.27,3.27,0,0,1-1.27-.25c-.89-.37-1.34-.92-1.34-1.64a1.41,1.41,0,0,1,0-.28,1.18,1.18,0,0,1,1.77-.65,2.93,2.93,0,0,1,.53,1.21c.14.55.42.83.83.83.79,0,1.21-1,1.28-3V561.83h-2.49v-.78Zm.16-3.81a1.55,1.55,0,0,1-1.52,1,2.09,2.09,0,0,1-.69-.12,1.58,1.58,0,0,1-1-1.58,1.64,1.64,0,0,1,.16-.72,1.59,1.59,0,0,1,1.55-1,1.77,1.77,0,0,1,.71.16,1.59,1.59,0,0,1,1,1.55A1.78,1.78,0,0,1,688.73,557.24Z"></path><path d="M698,573.48c.31,0,.46.29.46.75H691.3v-.78a6.79,6.79,0,0,0,1.52-.12q1-.32,1-1.74v-9.76H691.3v-.78h4.81v12.4h1.55Zm-1.64-16.24a1.54,1.54,0,0,1-1.52,1,2.09,2.09,0,0,1-.69-.12,1.58,1.58,0,0,1-1-1.58,1.79,1.79,0,0,1,.15-.72,1.61,1.61,0,0,1,1.56-1,1.77,1.77,0,0,1,.71.16,1.59,1.59,0,0,1,1,1.55A1.78,1.78,0,0,1,696.33,557.24Z"></path><path d="M706,579.34a1.45,1.45,0,0,1,.32,0c.3,0,.46.29.46.75h-7.6v-.78a5.43,5.43,0,0,0,1.52-.15q.81-.29.81-1.71V561.83h-2.33v-.78h4.47l.15,3.38a7.75,7.75,0,0,1,.62-1.3,5,5,0,0,1,4.5-2.39,4.8,4.8,0,0,1,3.32,1.24,7,7,0,0,1,2,5.37,7.38,7.38,0,0,1-1.8,5.11,5.94,5.94,0,0,1-4.62,2.08,6.33,6.33,0,0,1-3.93-1.61v6.41Zm-.12-16.68c-1.38,1-2.08,2.9-2.08,5.58a8.77,8.77,0,0,0,.47,3,3.3,3.3,0,0,0,3.29,2.51,3.47,3.47,0,0,0,1.54-.34c1.64-.8,2.45-2.73,2.45-5.76a11.48,11.48,0,0,0-.21-2.3c-.48-2.25-1.61-3.38-3.41-3.38A3.41,3.41,0,0,0,705.88,562.66Z"></path><path d="M724.76,571.75a4.15,4.15,0,0,1-.83,1.24,5.22,5.22,0,0,1-3.82,1.55,4.79,4.79,0,0,1-1.76-.34,3.21,3.21,0,0,1-2.08-3.23,4,4,0,0,1,.19-1.27c.7-2,3.48-3,8.34-3v-1.95a2.92,2.92,0,0,0-3-3.19,2.16,2.16,0,0,0-1.83.77,9.4,9.4,0,0,0-.59,1.37q-.35.9-1,.9a1.06,1.06,0,0,1-.31,0,1,1,0,0,1-.9-1.11,1.84,1.84,0,0,1,.37-1.06c.78-1.07,2.34-1.61,4.65-1.61h.56q4.42.25,4.43,4.68V572q0,1.56.84,1.62c.66,0,1.06-.79,1.21-2.3l.8,0a2,2,0,0,1,0,.34c-.16,1.93-1,2.89-2.63,2.89S725,573.59,724.76,571.75ZM722.53,573a4.1,4.1,0,0,0,2.27-3V567.5a19.06,19.06,0,0,0-3.69.31c-1.6.37-2.39,1.25-2.39,2.64a4.75,4.75,0,0,0,.09,1,2.19,2.19,0,0,0,2.33,1.89A3.57,3.57,0,0,0,722.53,573Z"></path><path d="M738.13,573.48c.31,0,.46.29.46.75h-7.13v-.78a6.79,6.79,0,0,0,1.52-.12q1-.32,1-1.74v-9.76h-2.48v-.78h4.81v12.4h1.55Zm-1.65-16.24a1.53,1.53,0,0,1-1.52,1,2.08,2.08,0,0,1-.68-.12,1.58,1.58,0,0,1-1-1.58,1.79,1.79,0,0,1,.15-.72,1.6,1.6,0,0,1,1.55-1,1.78,1.78,0,0,1,.72.16,1.59,1.59,0,0,1,1,1.55A1.63,1.63,0,0,1,736.48,557.24Z"></path><path d="M747.28,573.48c.31,0,.46.29.46.75h-7.1v-.78a5.48,5.48,0,0,0,1.52-.15q.81-.28.81-1.71V554.85h-2.33v-.77h4.65v19.37H747A1.42,1.42,0,0,1,747.28,573.48Z"></path><path d="M759.54,561.83a6.45,6.45,0,0,1,2.88,5.79,6.75,6.75,0,0,1-1.8,4.81,6.41,6.41,0,0,1-4.93,2.11,6.64,6.64,0,0,1-6.69-7,6.5,6.5,0,0,1,1.83-4.71,6.59,6.59,0,0,1,5-2A6.81,6.81,0,0,1,759.54,561.83ZM751.85,570q.81,3.72,3.94,3.72a4.35,4.35,0,0,0,1.14-.15q2.87-.9,2.86-6.11a13.5,13.5,0,0,0-.1-1.64c-.37-2.9-1.7-4.34-4-4.34a4,4,0,0,0-1.42.25q-2.64,1.05-2.64,5.85A12,12,0,0,0,751.85,570Z"></path><path d="M763.58,561.05h2.17v-2.94l2.33-.65v3.59h4.8v.78h-4.8v9.42c0,1.55.58,2.35,1.7,2.39,1-.15,1.75-1.08,2.26-2.79l.84.15v.07c-.48,2.33-1.66,3.5-3.56,3.5-2.24-.08-3.43-1.42-3.57-4v-8.74h-2.17Z"></path><path d="M780.72,573.48c.31,0,.46.29.46.75h-7v-.78a5.48,5.48,0,0,0,1.52-.15c.53-.19.8-.76.8-1.71V554.85h-2.32v-.77h4.65V564a5.12,5.12,0,0,1,4.83-3.29,4.12,4.12,0,0,1,1.87.44c1.48.8,2.23,2.33,2.23,4.58v7.69h1.55a1.42,1.42,0,0,1,.31,0c.31,0,.46.29.46.75h-6.82v-.78a5.09,5.09,0,0,0,1.49-.15c.45-.19.68-.76.68-1.71v-5.83a4.85,4.85,0,0,0-.34-1.86,2.65,2.65,0,0,0-2.63-1.76,3,3,0,0,0-1.68.52,4.54,4.54,0,0,0-1.95,4.1v6.69h1.55A1.35,1.35,0,0,1,780.72,573.48Z"></path><path d="M542.54,664.23v-.81H545v-17h-2.48v-.8h7.6v.8h-2.45v8.37l9.08-8.37h-2.48v-.8h5.58a1.71,1.71,0,0,1,0,.31c-.06.33-.32.49-.77.49a2.22,2.22,0,0,0-.59.07,4.88,4.88,0,0,0-1.74,1.24l-5.52,5.14,8.09,10.54h.84a1.63,1.63,0,0,1,.31,0c.33.07.5.32.5.78h-4.31l-7.35-9.55-1.61,1.52v7.22h1.64a1.63,1.63,0,0,1,.31,0c.33.07.5.32.5.78Z"></path><path d="M570.94,661.75a4.39,4.39,0,0,1-.84,1.24,5.18,5.18,0,0,1-3.81,1.55,4.8,4.8,0,0,1-1.77-.34,3.21,3.21,0,0,1-2.08-3.23,4,4,0,0,1,.19-1.27c.7-2,3.48-3,8.34-3v-1.95a2.91,2.91,0,0,0-3-3.19,2.16,2.16,0,0,0-1.83.77,9.4,9.4,0,0,0-.59,1.37c-.22.6-.58.9-1,.9a1.06,1.06,0,0,1-.31,0,1,1,0,0,1-.9-1.11,1.84,1.84,0,0,1,.37-1.06q1.19-1.61,4.65-1.61h.56c3,.17,4.43,1.73,4.43,4.68V662q0,1.56.84,1.62c.66,0,1.06-.79,1.21-2.3l.81,0a2.09,2.09,0,0,1,0,.34c-.16,1.93-1,2.89-2.63,2.89S571.18,663.59,570.94,661.75ZM568.7,663a4.1,4.1,0,0,0,2.27-3V657.5a19.22,19.22,0,0,0-3.69.31c-1.59.37-2.39,1.25-2.39,2.64a4.75,4.75,0,0,0,.09,1,2.19,2.19,0,0,0,2.33,1.89A3.57,3.57,0,0,0,568.7,663Z"></path><path d="M576.5,651.05h2.17v-2.94l2.33-.65v3.59h4.8v.78H581v9.42c0,1.55.59,2.35,1.7,2.39,1-.15,1.75-1.08,2.27-2.79l.83.15v.07q-.7,3.49-3.56,3.5c-2.23-.08-3.42-1.42-3.57-4v-8.74H576.5Z"></path><path d="M593.64,663.48c.31,0,.47.29.47.75h-7v-.78a5.43,5.43,0,0,0,1.52-.15q.81-.28.81-1.71V644.85h-2.33v-.77h4.65V654a5.12,5.12,0,0,1,4.84-3.29,4.11,4.11,0,0,1,1.86.44q2.24,1.2,2.23,4.58v7.69h1.55a1.3,1.3,0,0,1,.31,0c.31,0,.47.29.47.75h-6.82v-.78a5,5,0,0,0,1.48-.15q.69-.28.69-1.71v-5.83a5,5,0,0,0-.34-1.86,2.67,2.67,0,0,0-2.64-1.76,3,3,0,0,0-1.67.52,4.52,4.52,0,0,0-2,4.1v6.69h1.55A1.3,1.3,0,0,1,593.64,663.48Z"></path><path d="M612.22,663.48c.31,0,.46.29.46.75H605v-.78a5.43,5.43,0,0,0,1.52-.15q.81-.28.81-1.71v-9.76H605v-.78h4.5l.12,3.07a5.8,5.8,0,0,1,1.09-1.67,4.39,4.39,0,0,1,3.32-1.58,3.19,3.19,0,0,1,.59.06,1.6,1.6,0,0,1,1.42,1.7,1.26,1.26,0,0,1-.06.38,1.12,1.12,0,0,1-1.18.89,1.19,1.19,0,0,1-.37-.06q-.44-.12-.93-1c-.29-.52-.61-.77-1-.77a2.07,2.07,0,0,0-1.15.68,6,6,0,0,0-1.74,4.52v6.17h2.24A1.42,1.42,0,0,1,612.22,663.48Z"></path><path d="M624.34,663.48c.32,0,.47.29.47.75h-7.13v-.78a6.79,6.79,0,0,0,1.52-.12q1-.32,1-1.74v-9.76h-2.48v-.78h4.81v12.4H624Zm-1.64-16.24a1.53,1.53,0,0,1-1.52,1,2.08,2.08,0,0,1-.68-.12,1.58,1.58,0,0,1-1-1.58,1.79,1.79,0,0,1,.15-.72,1.6,1.6,0,0,1,1.55-1,1.78,1.78,0,0,1,.72.16,1.59,1.59,0,0,1,1,1.55A1.63,1.63,0,0,1,622.7,647.24Z"></path><path d="M633.17,663.48c.32,0,.47.29.47.75h-6.82v-.78a5.48,5.48,0,0,0,1.52-.15q.81-.28.81-1.71v-9.76h-2.33v-.78h4.49l.13,3.1a6.47,6.47,0,0,1,.9-1.58,4.66,4.66,0,0,1,3.78-1.83,4.16,4.16,0,0,1,2.14.59,4.83,4.83,0,0,1,2.14,4.43v7.69H642a1.42,1.42,0,0,1,.31,0c.31,0,.46.29.46.75h-7v-.78a5.48,5.48,0,0,0,1.52-.15c.53-.19.8-.76.8-1.71v-6.14a4.35,4.35,0,0,0-.28-1.61,2.53,2.53,0,0,0-2.57-1.76,3.19,3.19,0,0,0-1.71.52,4.78,4.78,0,0,0-2,4.16v6.69h1.39A1.3,1.3,0,0,1,633.17,663.48Z"></path><path d="M652.86,661.75A4.39,4.39,0,0,1,652,663a5.18,5.18,0,0,1-3.81,1.55,4.8,4.8,0,0,1-1.77-.34,3.22,3.22,0,0,1-2.08-3.23,4.33,4.33,0,0,1,.19-1.27c.7-2,3.48-3,8.34-3v-1.95a2.91,2.91,0,0,0-3-3.19,2.19,2.19,0,0,0-1.83.77,9.4,9.4,0,0,0-.59,1.37q-.33.9-1.05.9a1.1,1.1,0,0,1-.31,0,1,1,0,0,1-.9-1.11,1.92,1.92,0,0,1,.37-1.06q1.18-1.61,4.65-1.61h.56c3,.17,4.43,1.73,4.43,4.68V662c0,1,.3,1.58.84,1.62s1.07-.79,1.21-2.3l.81,0a2,2,0,0,1,0,.34c-.17,1.93-1,2.89-2.64,2.89S653.11,663.59,652.86,661.75ZM650.63,663a4.09,4.09,0,0,0,2.26-3V657.5a19.22,19.22,0,0,0-3.69.31c-1.59.37-2.39,1.25-2.39,2.64a4.1,4.1,0,0,0,.1,1,2.17,2.17,0,0,0,2.32,1.89A3.66,3.66,0,0,0,650.63,663Z"></path><path d="M680.85,647.15a9.1,9.1,0,0,1,3.57,7.78,9.32,9.32,0,0,1-2.95,7.13,8.86,8.86,0,0,1-6.29,2.48,9,9,0,0,1-5.77-2A9.31,9.31,0,0,1,666,654.8a9.16,9.16,0,0,1,9.3-9.48A9,9,0,0,1,680.85,647.15Zm-3.28,16.06q3.75-1.65,3.75-8.41,0-8.55-6.14-8.61a7.17,7.17,0,0,0-1.64.18q-4.47,1.18-4.47,8.56a15.88,15.88,0,0,0,.44,3.93c.84,3.21,2.77,4.81,5.76,4.81A5.66,5.66,0,0,0,677.57,663.21Z"></path><path d="M702.39,663.48c.31,0,.46.29.46.75h-4.37l-.22-3.16a6,6,0,0,1-.9,1.58,4.63,4.63,0,0,1-3.81,1.89q-4.39,0-4.43-5.33v-7.38h-2.39v-.78h4.71v8.62a6.81,6.81,0,0,0,.06.93,2.72,2.72,0,0,0,3,2.61,3.19,3.19,0,0,0,1.8-.59,4.58,4.58,0,0,0,2-4.1v-6.69h-2.54v-.78h4.87v12.4h1.55A1.42,1.42,0,0,1,702.39,663.48Z"></path><path d="M709.47,663.7a3,3,0,0,0,2.89-1.3,2,2,0,0,0,.28-1c0-.87-.64-1.62-1.89-2.24-.27-.14-.72-.35-1.34-.62a9.9,9.9,0,0,1-3.38-2,3.5,3.5,0,0,1-.9-2.39,3.08,3.08,0,0,1,2.36-3,6.68,6.68,0,0,1,2.36-.41,6.87,6.87,0,0,1,3.53.87c0-.6.14-.94.43-1a2.63,2.63,0,0,1,.41,0v3.87h-.81q-.06-2.85-3.16-2.88c-1.55,0-2.51.45-2.88,1.36a1.91,1.91,0,0,0-.16.78c0,.89.64,1.64,1.92,2.26.29.15.75.34,1.37.59a9.46,9.46,0,0,1,3.34,2,3.39,3.39,0,0,1,.9,2.36,3.32,3.32,0,0,1-2.66,3.35,7.24,7.24,0,0,1-2.23.34,7,7,0,0,1-3.88-1.12c0,.54-.13.85-.4.93a2.85,2.85,0,0,1-.44,0v-4.71H706Q706.06,663.68,709.47,663.7Z"></path><path d="M728.42,662.12a5.47,5.47,0,0,1-4.93,2.42,6.62,6.62,0,0,1-3.75-1.09,6.4,6.4,0,0,1-2.76-5.7,8,8,0,0,1,.87-3.78,5.77,5.77,0,0,1,5.55-3.23,6.73,6.73,0,0,1,3.5.9A3.75,3.75,0,0,1,729,655a2.08,2.08,0,0,1-.84,1.77c-.72.51-2.34.75-4.86.71l-3.73-.06a13.06,13.06,0,0,0,.28,2.38q.84,3.88,4.1,3.88l.59,0a4.3,4.3,0,0,0,3.5-2.67l.77.28A7,7,0,0,1,728.42,662.12Zm-6.48-10.23c-1.45.72-2.22,2.27-2.33,4.65l3.29.09a11,11,0,0,0,2.2-.12,1.76,1.76,0,0,0,1.49-1.89,3.13,3.13,0,0,0-.25-1.27,2.78,2.78,0,0,0-2.88-1.83A3.22,3.22,0,0,0,721.94,651.89Z"></path><path d="M737.21,669.34a1.3,1.3,0,0,1,.31,0c.31,0,.47.29.47.75h-7.6v-.78a5.48,5.48,0,0,0,1.52-.15q.81-.29.81-1.71V651.83h-2.33v-.78h4.46l.16,3.38a7,7,0,0,1,.62-1.3,4.94,4.94,0,0,1,4.49-2.39,4.78,4.78,0,0,1,3.32,1.24,7,7,0,0,1,2,5.37,7.38,7.38,0,0,1-1.8,5.11,5.94,5.94,0,0,1-4.62,2.08,6.38,6.38,0,0,1-3.94-1.61v6.41Zm-.12-16.68q-2.08,1.56-2.08,5.58a8.77,8.77,0,0,0,.47,3,3.29,3.29,0,0,0,3.28,2.51,3.49,3.49,0,0,0,1.55-.34c1.63-.8,2.45-2.73,2.45-5.76a10.76,10.76,0,0,0-.22-2.3q-.7-3.37-3.41-3.38A3.4,3.4,0,0,0,737.09,652.66Z"></path><path d="M753.35,663.48c.31,0,.47.29.47.75h-7v-.78a5.48,5.48,0,0,0,1.52-.15q.81-.28.81-1.71V644.85h-2.33v-.77h4.65V654a5.12,5.12,0,0,1,4.84-3.29,4.11,4.11,0,0,1,1.86.44c1.48.8,2.23,2.33,2.23,4.58v7.69H762a1.35,1.35,0,0,1,.31,0c.31,0,.46.29.46.75h-6.82v-.78a5.09,5.09,0,0,0,1.49-.15c.46-.19.68-.76.68-1.71v-5.83a4.85,4.85,0,0,0-.34-1.86,2.65,2.65,0,0,0-2.63-1.76,3,3,0,0,0-1.68.52,4.54,4.54,0,0,0-2,4.1v6.69H753A1.3,1.3,0,0,1,753.35,663.48Z"></path><path d="M552.15,844.54a9.32,9.32,0,0,1-9.73-9.64,9.81,9.81,0,0,1,1.92-6,9.15,9.15,0,0,1,7.81-3.62,11,11,0,0,1,6,1.58,5,5,0,0,1,.07-.9c.1-.35.41-.53.93-.53l.09,6h-1a15.06,15.06,0,0,0-.62-1.8,5.23,5.23,0,0,0-5.06-3.44,5.73,5.73,0,0,0-2,.34q-3.78,1.49-3.78,8.27,0,8.74,5.61,8.81a9.24,9.24,0,0,0,1-.06c2.44-.35,4.1-2.09,5-5.21h.93v6a2.09,2.09,0,0,1-.55-.06c-.36-.1-.52-.56-.5-1.36A13,13,0,0,1,552.15,844.54Z"></path><path d="M567.88,843.45c.26.07.4.32.4.78h-7.19v-.81a5.8,5.8,0,0,0,.9-.06c.72-.14,1.08-.68,1.08-1.61V824.88h-2v-.8h5.39v9.45a6,6,0,0,1,.65-1.14,4.86,4.86,0,0,1,4-1.86,4.35,4.35,0,0,1,1.67.31q2.52,1,2.52,4.74v7.84h1.17a2.43,2.43,0,0,1,.38,0c.26.07.4.32.4.78h-6.88v-.81a2.78,2.78,0,0,0,1.05-.15c.31-.17.47-.67.47-1.52v-6.54a5.26,5.26,0,0,0-.13-1.18,2.22,2.22,0,0,0-2.29-1.92,2.5,2.5,0,0,0-1.24.34q-1.77,1-1.77,3.78v7.19h1A2.43,2.43,0,0,1,567.88,843.45Z"></path><path d="M586.81,841.72a4.77,4.77,0,0,1-.59,1.08,4.57,4.57,0,0,1-3.81,1.74,4.94,4.94,0,0,1-1.61-.25,3.26,3.26,0,0,1-2.33-3.44q0-4.12,8.16-4.25v-2a9.18,9.18,0,0,0-.06-1.09c-.21-1.46-.93-2.2-2.17-2.2a2,2,0,0,0-.9.19,2.41,2.41,0,0,0-1,1.58l-.19.53a1.57,1.57,0,0,1-1.55,1.14,1.82,1.82,0,0,1-.56-.09,1.3,1.3,0,0,1-1-1.36,1.81,1.81,0,0,1,.34-1.06c.76-1.16,2.45-1.73,5-1.73a8.73,8.73,0,0,1,1.65.15q3.78.75,3.78,4.74v6.51c0,1,.24,1.51.71,1.55s1-.75,1.12-2.2l.8,0a9,9,0,0,1-.21,1.49,2.5,2.5,0,0,1-2.73,1.74C588.13,844.52,587.14,843.58,586.81,841.72Zm-2.17,1.33a3.76,3.76,0,0,0,2-2.76v-2.82a10.09,10.09,0,0,0-2.54.31,2.53,2.53,0,0,0-2.11,2.67v.31c.08,1.65.7,2.48,1.86,2.48A2.11,2.11,0,0,0,584.64,843.05Z"></path><path d="M602.39,841.72a4.77,4.77,0,0,1-.59,1.08,4.57,4.57,0,0,1-3.81,1.74,4.9,4.9,0,0,1-1.61-.25,3.26,3.26,0,0,1-2.33-3.44q0-4.12,8.16-4.25v-2a9.08,9.08,0,0,0-.07-1.09c-.2-1.46-.93-2.2-2.17-2.2a2,2,0,0,0-.89.19,2.45,2.45,0,0,0-1,1.58c-.08.25-.14.42-.18.53a1.57,1.57,0,0,1-1.55,1.14,1.77,1.77,0,0,1-.56-.09,1.3,1.3,0,0,1-1-1.36,1.81,1.81,0,0,1,.34-1.06c.76-1.16,2.45-1.73,5.05-1.73a8.55,8.55,0,0,1,1.64.15q3.79.75,3.79,4.74v6.51c0,1,.23,1.51.71,1.55s1-.75,1.12-2.2l.8,0a9,9,0,0,1-.21,1.49,2.51,2.51,0,0,1-2.73,1.74C603.7,844.52,602.72,843.58,602.39,841.72Zm-2.17,1.33a3.78,3.78,0,0,0,2-2.76v-2.82a10.24,10.24,0,0,0-2.55.31,2.53,2.53,0,0,0-2.1,2.67v.31c.08,1.65.7,2.48,1.86,2.48A2.15,2.15,0,0,0,600.22,843.05Z"></path><path d="M617,843.45c.31,0,.47.3.47.78h-8.06v-.81a6.65,6.65,0,0,0,1-.06,1.46,1.46,0,0,0,1.39-1.61V824.88h-2.35v-.8h5.76v13.39l6.08-5.73H619V831h5.27a1.63,1.63,0,0,1,0,.31c-.05.31-.3.47-.78.47a2.4,2.4,0,0,0-.56.06,4.16,4.16,0,0,0-1.61,1.14l-2.48,2.36,5,8.12h.68a1.72,1.72,0,0,1,.34,0c.27,0,.41.3.41.78l-4.81,0-4-6.7-1.21,1.15v4.71h1.56A1.12,1.12,0,0,1,617,843.45Z"></path><path d="M633.83,843.45c.31,0,.46.3.46.78h-8.06v-.81a6.65,6.65,0,0,0,1-.06,1.47,1.47,0,0,0,1.4-1.61V824.88h-2.36v-.8H632v13.39l6.07-5.73h-2.29V831h5.27a1.63,1.63,0,0,1,0,.31c0,.31-.3.47-.78.47a2.47,2.47,0,0,0-.56.06,4.16,4.16,0,0,0-1.61,1.14l-2.48,2.36,5,8.12h.69a1.87,1.87,0,0,1,.34,0c.26,0,.4.3.4.78l-4.81,0-4-6.7L632,838.71v4.71h1.55A1.27,1.27,0,0,1,633.83,843.45Z"></path><path d="M658.35,843.45c.27,0,.4.3.4.78h-5.14l-.16-2.73a7.23,7.23,0,0,1-.52.93,4.66,4.66,0,0,1-4,2.11q-4.41,0-4.43-5.15v-7.65h-2V831h5.4v8.93a4.25,4.25,0,0,0,.06.8c.2,1.55,1,2.33,2.35,2.33a2.5,2.5,0,0,0,1.24-.34,4,4,0,0,0,1.8-3.47l0-7.47h-1.86V831h5.27v12.46H658A1.72,1.72,0,0,1,658.35,843.45Z"></path><path d="M1005.94,556.43V568.9a7,7,0,0,1-1,3.78,4.5,4.5,0,0,1-4,2.11,5.86,5.86,0,0,1-1.92-.31c-1.08-.4-1.61-1-1.61-1.83a1.39,1.39,0,0,1,.09-.47,1.23,1.23,0,0,1,1.27-.9,1.32,1.32,0,0,1,1.12.5,8.5,8.5,0,0,1,.46,1.27,1.13,1.13,0,0,0,1.12,1,1.4,1.4,0,0,0,.83-.25c.64-.49,1-2,1-4.55V556.43h-2.79v-.8h7.94v.8Z"></path><path d="M1020.44,561.83a6.45,6.45,0,0,1,2.88,5.79,6.75,6.75,0,0,1-1.8,4.81,6.41,6.41,0,0,1-4.93,2.11,6.64,6.64,0,0,1-6.69-7,6.5,6.5,0,0,1,1.83-4.71,6.59,6.59,0,0,1,5-2A6.81,6.81,0,0,1,1020.44,561.83Zm-7.69,8.21q.81,3.72,3.94,3.72a4.35,4.35,0,0,0,1.14-.15q2.86-.9,2.86-6.11a11.74,11.74,0,0,0-.1-1.64c-.37-2.9-1.7-4.34-4-4.34a4,4,0,0,0-1.42.25q-2.64,1.05-2.64,5.85A12.71,12.71,0,0,0,1012.75,570Z"></path><path d="M1031.17,573.48c.31,0,.46.29.46.75h-7v-.78a5.39,5.39,0,0,0,1.51-.15q.81-.28.81-1.71V554.85h-2.32v-.77h4.65V564a4.71,4.71,0,0,1,1-1.61,5,5,0,0,1,3.84-1.68,4.11,4.11,0,0,1,1.86.44q2.24,1.2,2.23,4.58v7.69h1.55a1.3,1.3,0,0,1,.31,0c.31,0,.47.29.47.75h-6.82v-.78a5.14,5.14,0,0,0,1.49-.15c.45-.19.68-.76.68-1.71v-5.83a4.85,4.85,0,0,0-.34-1.86,2.67,2.67,0,0,0-2.64-1.76,3,3,0,0,0-1.67.52,4.54,4.54,0,0,0-2,4.1v6.69h1.55A1.42,1.42,0,0,1,1031.17,573.48Z"></path><path d="M1048.87,573.48c.31,0,.47.29.47.75h-6.82v-.78a5.48,5.48,0,0,0,1.52-.15c.53-.19.8-.76.8-1.71v-9.76h-2.32v-.78H1047l.13,3.1a5.88,5.88,0,0,1,.9-1.58,4.66,4.66,0,0,1,3.78-1.83,4.16,4.16,0,0,1,2.14.59,4.83,4.83,0,0,1,2.14,4.43v7.69h1.55a1.42,1.42,0,0,1,.31,0c.31,0,.46.29.46.75h-7v-.78a5.39,5.39,0,0,0,1.51-.15q.81-.28.81-1.71v-6.14a4.35,4.35,0,0,0-.28-1.61,2.53,2.53,0,0,0-2.57-1.76,3.19,3.19,0,0,0-1.71.52,4.78,4.78,0,0,0-2,4.16v6.69h1.39A1.3,1.3,0,0,1,1048.87,573.48Z"></path><path d="M42.29,574.23v-.81h2.48v-17H42.29v-.8H50v.8h-2.6v17h4.25a4.53,4.53,0,0,0,.71-.06c1.16-.27,2-1.35,2.48-3.26l.53-2.07H56l-.16,6.2Z"></path><path d="M68.64,561.83a6.43,6.43,0,0,1,2.89,5.79,6.75,6.75,0,0,1-1.8,4.81,6.42,6.42,0,0,1-4.93,2.11,6.65,6.65,0,0,1-6.7-7,6.5,6.5,0,0,1,1.83-4.71,6.61,6.61,0,0,1,5-2A6.76,6.76,0,0,1,68.64,561.83ZM61,570q.8,3.72,3.93,3.72a4.37,4.37,0,0,0,1.15-.15q2.85-.9,2.85-6.11a13.62,13.62,0,0,0-.09-1.64c-.37-2.9-1.71-4.34-4-4.34a4.06,4.06,0,0,0-1.43.25q-2.62,1.05-2.63,5.85A12,12,0,0,0,61,570Z"></path><path d="M79.28,573.48c.31,0,.47.29.47.75H72.93v-.78a5.48,5.48,0,0,0,1.52-.15c.54-.19.8-.76.8-1.71v-9.76H72.93v-.78h4.49l.13,3.1a6.47,6.47,0,0,1,.9-1.58,4.66,4.66,0,0,1,3.78-1.83,4.16,4.16,0,0,1,2.14.59,4.81,4.81,0,0,1,2.14,4.43v7.69h1.55a1.35,1.35,0,0,1,.31,0c.31,0,.46.29.46.75h-7v-.78a5.48,5.48,0,0,0,1.52-.15c.53-.19.8-.76.8-1.71v-6.14a4.35,4.35,0,0,0-.28-1.61,2.53,2.53,0,0,0-2.57-1.76,3.13,3.13,0,0,0-1.7.52,4.77,4.77,0,0,0-2,4.16v6.69H79A1.3,1.3,0,0,1,79.28,573.48Z"></path><path d="M99,571.75a4.39,4.39,0,0,1-.84,1.24,5.18,5.18,0,0,1-3.81,1.55,4.8,4.8,0,0,1-1.77-.34A3.22,3.22,0,0,1,90.47,571a4.33,4.33,0,0,1,.19-1.27c.7-2,3.48-3,8.34-3v-1.95a2.91,2.91,0,0,0-3-3.19,2.19,2.19,0,0,0-1.83.77,9.4,9.4,0,0,0-.59,1.37q-.33.9-1,.9a1.1,1.1,0,0,1-.31,0,1,1,0,0,1-.9-1.11,1.84,1.84,0,0,1,.37-1.06q1.18-1.61,4.65-1.61h.56c3,.17,4.43,1.73,4.43,4.68V572q0,1.56.84,1.62c.66,0,1.07-.79,1.21-2.3l.81,0a2,2,0,0,1,0,.34c-.17,1.93-1.05,2.89-2.64,2.89S99.22,573.59,99,571.75ZM96.74,573A4.11,4.11,0,0,0,99,570V567.5a19.22,19.22,0,0,0-3.69.31c-1.59.37-2.39,1.25-2.39,2.64a4.1,4.1,0,0,0,.1,1,2.18,2.18,0,0,0,2.32,1.89A3.62,3.62,0,0,0,96.74,573Z"></path><path d="M111.38,579.34a1.42,1.42,0,0,1,.31,0c.31,0,.46.29.46.75h-7.59v-.78a5.48,5.48,0,0,0,1.52-.15c.53-.19.8-.76.8-1.71V561.83h-2.32v-.78H109l.16,3.38a7,7,0,0,1,.62-1.3,4.94,4.94,0,0,1,4.49-2.39,4.8,4.8,0,0,1,3.32,1.24,7,7,0,0,1,2,5.37,7.38,7.38,0,0,1-1.8,5.11,5.94,5.94,0,0,1-4.62,2.08,6.35,6.35,0,0,1-3.93-1.61v6.41Zm-.13-16.68q-2.07,1.56-2.07,5.58a8.78,8.78,0,0,0,.46,3,3.31,3.31,0,0,0,3.29,2.51,3.52,3.52,0,0,0,1.55-.34c1.63-.8,2.45-2.73,2.45-5.76a11.44,11.44,0,0,0-.22-2.3c-.48-2.25-1.61-3.38-3.41-3.38A3.43,3.43,0,0,0,111.25,562.66Z"></path><path d="M127.74,579.34a1.35,1.35,0,0,1,.31,0c.31,0,.46.29.46.75h-7.59v-.78a5.48,5.48,0,0,0,1.52-.15c.54-.19.8-.76.8-1.71V561.83h-2.32v-.78h4.46l.16,3.38a7,7,0,0,1,.62-1.3,4.94,4.94,0,0,1,4.49-2.39A4.78,4.78,0,0,1,134,562a7,7,0,0,1,1.95,5.37,7.42,7.42,0,0,1-1.79,5.11,6,6,0,0,1-4.62,2.08,6.38,6.38,0,0,1-3.94-1.61v6.41Zm-.12-16.68q-2.09,1.56-2.08,5.58a8.78,8.78,0,0,0,.46,3,3.31,3.31,0,0,0,3.29,2.51,3.52,3.52,0,0,0,1.55-.34c1.63-.8,2.45-2.73,2.45-5.76a11.44,11.44,0,0,0-.22-2.3q-.7-3.37-3.41-3.38A3.4,3.4,0,0,0,127.62,562.66Z"></path><path d="M146.5,571.75a4.39,4.39,0,0,1-.84,1.24,5.18,5.18,0,0,1-3.81,1.55,4.8,4.8,0,0,1-1.77-.34A3.22,3.22,0,0,1,138,571a4.33,4.33,0,0,1,.19-1.27c.7-2,3.48-3,8.34-3v-1.95a2.91,2.91,0,0,0-3-3.19,2.19,2.19,0,0,0-1.83.77,9.4,9.4,0,0,0-.59,1.37q-.33.9-1,.9a1.1,1.1,0,0,1-.31,0,1,1,0,0,1-.9-1.11,1.84,1.84,0,0,1,.37-1.06q1.18-1.61,4.65-1.61h.56c3,.17,4.43,1.73,4.43,4.68V572c0,1,.3,1.58.84,1.62s1.07-.79,1.21-2.3l.81,0a2,2,0,0,1,0,.34c-.17,1.93-1.05,2.89-2.64,2.89S146.75,573.59,146.5,571.75ZM144.27,573a4.11,4.11,0,0,0,2.26-3V567.5a19.22,19.22,0,0,0-3.69.31c-1.59.37-2.39,1.25-2.39,2.64a4.1,4.1,0,0,0,.1,1,2.18,2.18,0,0,0,2.32,1.89A3.62,3.62,0,0,0,144.27,573Z"></path><path d="M159.55,573.48c.31,0,.46.29.46.75h-6.82v-.78a5.43,5.43,0,0,0,1.52-.15q.81-.28.81-1.71v-9.76h-2.33v-.78h4.5l.12,3.1a6.47,6.47,0,0,1,.9-1.58,4.69,4.69,0,0,1,3.79-1.83,4.12,4.12,0,0,1,2.13.59,4.81,4.81,0,0,1,2.14,4.43v7.69h1.55a1.3,1.3,0,0,1,.31,0c.31,0,.47.29.47.75h-7v-.78a5.43,5.43,0,0,0,1.52-.15q.81-.28.81-1.71v-6.14a4.35,4.35,0,0,0-.28-1.61,2.54,2.54,0,0,0-2.57-1.76,3.19,3.19,0,0,0-1.71.52,4.81,4.81,0,0,0-2,4.16v6.69h1.4A1.35,1.35,0,0,1,159.55,573.48Z"></path><path class="cls-1" d="M1057,93.35H478a31.19,31.19,0,0,0-31.15,31.15v59.07h1V124.5A30.19,30.19,0,0,1,478,94.35H767v89.22h1V94.35h289a30.19,30.19,0,0,1,30.16,30.15v59.07h1V124.5A31.2,31.2,0,0,0,1057,93.35ZM242.67,291.61a30.19,30.19,0,0,1,30.15-30.16h345A30.19,30.19,0,0,1,648,291.61v59.06h1V291.61a31.19,31.19,0,0,0-31.15-31.16h-345a31.19,31.19,0,0,0-31.15,31.16v59.06h1ZM648,525.75V436h-1v89.71ZM469.25,837.38h60.08v-1H470.25V656.87h59.08v-1H470.25V567.31h59.08v-1H190.28v1h279Zm121.44,48.91h-1v89.06H441v631.54h60.08v-1H442v-89.11h59.08v-1H442v-89.11h59.08v-1H442v-89.11h59.08v-1H442v-89.11h59.08v-1H442v-89.11h59.08v-1H442v-89.11h59.08v-1H442V976.35H649.76v-1H590.69Zm250-319H973.62v-1H840.73Z"></path><path d="M673,985.25a9.35,9.35,0,0,1-9.74-9.64,9.78,9.78,0,0,1,1.92-6A9.17,9.17,0,0,1,673,966a11.09,11.09,0,0,1,6,1.58,5,5,0,0,1,.06-.9c.1-.35.41-.53.93-.53l.09,6h-1a13.31,13.31,0,0,0-.62-1.79,5.23,5.23,0,0,0-5-3.45,5.75,5.75,0,0,0-2,.35q-3.78,1.49-3.78,8.27,0,8.75,5.61,8.81a9.55,9.55,0,0,0,1.06-.06c2.43-.36,4.09-2.09,5-5.21h.93v6a2.12,2.12,0,0,1-.56-.06c-.35-.1-.52-.56-.5-1.36A12.92,12.92,0,0,1,673,985.25Z"></path><path d="M686.94,984a1.86,1.86,0,0,1-1.77,1.05,2.26,2.26,0,0,1-.87-.18,1.85,1.85,0,0,1-1.11-1.8,2,2,0,0,1,.21-.9,1.81,1.81,0,0,1,1.77-1.12,2,2,0,0,1,.93.25,1.87,1.87,0,0,1,1.09,1.77A1.91,1.91,0,0,1,686.94,984Z"></path><path d="M718.71,967.17h-2.48V984.1h1.65a.93.93,0,0,1,.83.84h-8.58v-.84h2.48V969.31l-6.82,15.87h-.59l-6.67-13.26V984.1h1.65a.93.93,0,0,1,.83.84h-6.26v-.84h2.48V967.17h-2.48v-.83H700l6.73,13.95,5.92-13.95h6.1Z"></path><path d="M728.26,982.43a4.77,4.77,0,0,1-.59,1.08,4.57,4.57,0,0,1-3.81,1.74,5.22,5.22,0,0,1-1.61-.25,3.27,3.27,0,0,1-2.33-3.44q0-4.12,8.16-4.25v-2a9.06,9.06,0,0,0-.06-1.09c-.21-1.47-.93-2.2-2.17-2.2a2,2,0,0,0-.9.19,2.41,2.41,0,0,0-1,1.58l-.19.52a1.57,1.57,0,0,1-1.55,1.15,1.82,1.82,0,0,1-.56-.09,1.31,1.31,0,0,1-1-1.37,1.8,1.8,0,0,1,.34-1c.76-1.16,2.45-1.74,5.05-1.74a8.71,8.71,0,0,1,1.65.16c2.52.49,3.78,2.08,3.78,4.74v6.51c0,1,.24,1.51.71,1.55s1-.75,1.12-2.2l.8,0a9,9,0,0,1-.21,1.49,2.5,2.5,0,0,1-2.73,1.74C729.58,985.23,728.59,984.29,728.26,982.43Zm-2.17,1.33a3.78,3.78,0,0,0,2-2.76v-2.82a10.09,10.09,0,0,0-2.54.31,2.53,2.53,0,0,0-2.11,2.66v.31c.08,1.66.7,2.48,1.86,2.48A2.08,2.08,0,0,0,726.09,983.76Z"></path><path d="M743.29,984.16c.31,0,.47.3.47.78h-8.4v-.81a4.82,4.82,0,0,0,1-.09c.62-.17.93-.69.93-1.58v-10h-1.95v-.77h5.11l.19,2.91a5.64,5.64,0,0,1,1-1.61,4.59,4.59,0,0,1,3.38-1.55,3.06,3.06,0,0,1,.74.09,1.75,1.75,0,0,1,1.46,1.86,1.79,1.79,0,0,1-.15.72,1.62,1.62,0,0,1-1.58,1.08,1.87,1.87,0,0,1-.59-.09,2.22,2.22,0,0,1-1.12-1.18c-.27-.48-.54-.71-.81-.71a1.14,1.14,0,0,0-.58.21c-1,.69-1.53,2-1.68,4v6.73H743A1.14,1.14,0,0,1,743.29,984.16Z"></path><path d="M752.55,989.77c1-.37,2-1.84,3-4.4l-5.89-12.93h-1.4v-.77h6.92v.77h-2l3.88,9.06,3.6-9.06h-2.33v-.77h4.77c0,.14,0,.27,0,.37-.07.27-.32.4-.75.4a1.2,1.2,0,0,0-.28,0c-.29.07-.55.38-.77.93l-4.62,11.82a17.34,17.34,0,0,1-1.31,2.69c-1.17,2-2.61,3-4.3,3a4.16,4.16,0,0,1-1.77-.37,1.9,1.9,0,0,1-1.3-1.71,1.49,1.49,0,0,1,.06-.4,1.24,1.24,0,0,1,1.33-.9,1.37,1.37,0,0,1,.84.25,3.07,3.07,0,0,1,.74,1.3q.32.81.84.81A1.82,1.82,0,0,0,752.55,989.77Z"></path><path d="M524,1074.06v-.84h2.95v-16.93H526a3.88,3.88,0,0,0-1.12.16c-1.09.33-1.89,1.3-2.38,2.91l-.81,2.58h-.93l.15-6.48h15.82l.12,6.48H536l-.8-2.58c-.09-.27-.18-.52-.28-.77a3.32,3.32,0,0,0-3.23-2.3h-.93v16.93h2.11q.55.06.81.84Z"></path><path d="M544.35,1073.28c.27.06.4.32.4.78h-7.19v-.81a5.8,5.8,0,0,0,.9-.06c.72-.14,1.08-.68,1.08-1.61v-16.87h-2v-.8H543v9.45a7,7,0,0,1,.65-1.15,4.89,4.89,0,0,1,4-1.85,4.44,4.44,0,0,1,1.68.31q2.51,1,2.51,4.74v7.84H553l.37,0c.27.06.4.32.4.78h-6.88v-.81a2.71,2.71,0,0,0,1-.15c.31-.17.47-.67.47-1.52V1065a4.74,4.74,0,0,0-.13-1.18,2.22,2.22,0,0,0-2.29-1.92,2.52,2.52,0,0,0-1.24.34q-1.77,1-1.77,3.78v7.19h1Z"></path><path d="M563.23,1073.28c.31,0,.47.3.47.78h-8.41v-.81a4.85,4.85,0,0,0,1-.09c.62-.17.93-.69.93-1.58v-10h-2v-.77h5.12l.18,2.91a5.46,5.46,0,0,1,1-1.61,4.59,4.59,0,0,1,3.38-1.55,3.12,3.12,0,0,1,.74.09,1.76,1.76,0,0,1,1.46,1.86,1.64,1.64,0,0,1-.16.72,1.61,1.61,0,0,1-1.58,1.08,1.92,1.92,0,0,1-.59-.09,2.21,2.21,0,0,1-1.11-1.18c-.27-.47-.54-.71-.81-.71a1.14,1.14,0,0,0-.59.22c-1,.68-1.53,2-1.67,4v6.73H563A1.2,1.2,0,0,1,563.23,1073.28Z"></path><path d="M580.19,1071.86a5.59,5.59,0,0,1-5.11,2.51,7.62,7.62,0,0,1-3.76-.93c-2.08-1.22-3.13-3.25-3.13-6.08a7.3,7.3,0,0,1,1.34-4.43,6.33,6.33,0,0,1,5.45-2.57,8,8,0,0,1,3.51.74,4,4,0,0,1,2.48,3.69,2.25,2.25,0,0,1-.31,1.18c-.62,1-2.49,1.39-5.58,1.33l-3.14-.06v.06q.16,6.17,3.79,6.17a4,4,0,0,0,1.33-.22,4.56,4.56,0,0,0,2.85-2.57l.75.25A6.77,6.77,0,0,1,580.19,1071.86Zm-5.92-10.61c-1.47.46-2.24,2.15-2.33,5.09l2.39.09a7.65,7.65,0,0,0,2-.15,1.71,1.71,0,0,0,1-1.83,5.8,5.8,0,0,0-.09-1c-.25-1.5-1-2.26-2.3-2.26A3,3,0,0,0,574.27,1061.25Z"></path><path d="M587.74,1073.5c1.38,0,2.24-.46,2.57-1.4a2.16,2.16,0,0,0,.09-.62c0-1-.65-1.82-1.95-2.51-.29-.14-.74-.35-1.36-.62a10.18,10.18,0,0,1-3.2-1.92,3.47,3.47,0,0,1-.83-2.29,3.41,3.41,0,0,1,2.66-3.38,8.13,8.13,0,0,1,2.64-.4,7.16,7.16,0,0,1,3.72.86c0-.62.16-1,.49-1l.31,0V1064H592c-.08-1.88-1.11-2.83-3.1-2.85-1.38,0-2.24.44-2.57,1.3a2.09,2.09,0,0,0-.12.69c0,.86.62,1.62,1.86,2.26l1.3.59a9.68,9.68,0,0,1,3.25,2,3.62,3.62,0,0,1,.93,2.48,3.5,3.5,0,0,1-2.73,3.54,8,8,0,0,1-2.47.37,8.55,8.55,0,0,1-4.38-1c0,.54-.13.85-.4.93a2.63,2.63,0,0,1-.43,0v-4.72h1Q584.14,1073.48,587.74,1073.5Z"></path><path d="M602,1073.28c.31,0,.46.3.46.78H595v-.81a4.27,4.27,0,0,0,1-.09c.69-.17,1-.69,1-1.58v-10h-2v-.77h5.43v12.46h1.27A1.2,1.2,0,0,1,602,1073.28Zm-1.49-15.71a2,2,0,0,1-1.86,1.08,2.17,2.17,0,0,1-1-.22,1.91,1.91,0,0,1-1.15-1.86,2.14,2.14,0,0,1,.25-1,2,2,0,0,1,1.86-1.15,2.08,2.08,0,0,1,1,.25,2,2,0,0,1,1.15,1.89A2.21,2.21,0,0,1,600.47,1057.57Z"></path><path d="M612.05,1071.55a4.77,4.77,0,0,1-.59,1.08,4.57,4.57,0,0,1-3.81,1.74,4.9,4.9,0,0,1-1.61-.25,3.26,3.26,0,0,1-2.33-3.44q0-4.12,8.16-4.25v-2a7.31,7.31,0,0,0-.07-1.09c-.2-1.46-.92-2.2-2.17-2.2a2,2,0,0,0-.89.19,2.45,2.45,0,0,0-1,1.58c-.08.25-.14.42-.18.53a1.57,1.57,0,0,1-1.55,1.14,1.82,1.82,0,0,1-.56-.09,1.3,1.3,0,0,1-1-1.36,1.81,1.81,0,0,1,.34-1.06c.76-1.16,2.45-1.73,5-1.73a8.73,8.73,0,0,1,1.65.15q3.78.75,3.78,4.74v6.51c0,1,.24,1.51.71,1.55s1-.75,1.12-2.2l.8,0a9,9,0,0,1-.21,1.49,2.5,2.5,0,0,1-2.73,1.74C613.37,1074.35,612.38,1073.41,612.05,1071.55Zm-2.17,1.33a3.76,3.76,0,0,0,2-2.76v-2.82a10.09,10.09,0,0,0-2.54.31,2.53,2.53,0,0,0-2.11,2.67v.31c.08,1.65.7,2.48,1.86,2.48A2.11,2.11,0,0,0,609.88,1072.88Z"></path><path d="M625.64,1073.28c.31,0,.47.3.47.78h-7v-.81a4.48,4.48,0,0,0,1-.09c.69-.15,1-.67,1-1.58v-10h-2v-.77h5.21l.16,2.48.24-.5a4.49,4.49,0,0,1,4.13-2.41,3.5,3.5,0,0,1,1,.15,3.89,3.89,0,0,1,2.6,2.88,1.89,1.89,0,0,1,.1-.21,4.66,4.66,0,0,1,4.37-2.82,3.7,3.7,0,0,1,2,.58,4.7,4.7,0,0,1,2,4.34v8h1.18a2.31,2.31,0,0,1,.37,0c.27.06.4.32.4.78h-7v-.81a2.67,2.67,0,0,0,1-.15c.39-.17.59-.67.59-1.52v-6.64a5.19,5.19,0,0,0-.22-1.55,2,2,0,0,0-2-1.58,1.85,1.85,0,0,0-.81.19,3.64,3.64,0,0,0-1.83,3v8.24h.81a2.31,2.31,0,0,1,.37,0c.27.06.4.32.4.78h-6.6v-.81a2.6,2.6,0,0,0,1-.15c.4-.17.59-.67.59-1.52v-6.64a5.33,5.33,0,0,0-.21-1.55c-.36-1-1-1.52-1.8-1.52a2.07,2.07,0,0,0-1,.28,4,4,0,0,0-1.8,3.44l0,7.66h.83A1.14,1.14,0,0,1,625.64,1073.28Z"></path><path d="M651,1073.28c.31,0,.46.3.46.78h-7v-.81a4.48,4.48,0,0,0,1-.09c.68-.15,1-.67,1-1.58v-10h-2v-.77h5.2l.16,2.48.25-.5a4.47,4.47,0,0,1,4.12-2.41,3.5,3.5,0,0,1,1,.15,3.9,3.9,0,0,1,2.61,2.88,1.65,1.65,0,0,1,.09-.21,4.67,4.67,0,0,1,4.37-2.82,3.73,3.73,0,0,1,2,.58,4.72,4.72,0,0,1,2,4.34v8h1.18a2.22,2.22,0,0,1,.37,0c.27.06.41.32.41.78h-7v-.81a2.6,2.6,0,0,0,1-.15c.4-.17.59-.67.59-1.52v-6.64a5.53,5.53,0,0,0-.21-1.55,2,2,0,0,0-2-1.58,1.77,1.77,0,0,0-.8.19,3.59,3.59,0,0,0-1.83,3v8.24h.8a2.43,2.43,0,0,1,.38,0c.26.06.4.32.4.78h-6.61v-.81a2.7,2.7,0,0,0,1-.15c.39-.17.59-.67.59-1.52v-6.64a5.32,5.32,0,0,0-.22-1.55,1.89,1.89,0,0,0-1.8-1.52,2.07,2.07,0,0,0-1,.28,4.06,4.06,0,0,0-1.8,3.44l0,7.66h.84A1.27,1.27,0,0,1,651,1073.28Z"></path><path d="M677.91,1071.55a5.2,5.2,0,0,1-.59,1.08,4.57,4.57,0,0,1-3.82,1.74,5,5,0,0,1-1.61-.25,3.26,3.26,0,0,1-2.32-3.44q0-4.12,8.15-4.25v-2a9.06,9.06,0,0,0-.06-1.09c-.21-1.46-.93-2.2-2.17-2.2a2,2,0,0,0-.9.19,2.49,2.49,0,0,0-1,1.58c-.08.25-.15.42-.19.53a1.56,1.56,0,0,1-1.55,1.14,1.87,1.87,0,0,1-.56-.09,1.3,1.3,0,0,1-1-1.36,1.88,1.88,0,0,1,.34-1.06c.77-1.16,2.45-1.73,5.06-1.73a8.7,8.7,0,0,1,1.64.15q3.78.75,3.78,4.74v6.51c0,1,.24,1.51.72,1.55s1-.75,1.11-2.2l.81,0a10.13,10.13,0,0,1-.22,1.49,2.5,2.5,0,0,1-2.73,1.74Q678.41,1074.34,677.91,1071.55Zm-2.17,1.33a3.75,3.75,0,0,0,2-2.76v-2.82a10.15,10.15,0,0,0-2.54.31,2.53,2.53,0,0,0-2.11,2.67v.31c.08,1.65.7,2.48,1.86,2.48A2.16,2.16,0,0,0,675.74,1072.88Z"></path><path d="M699.36,1056.29v11.88a7.89,7.89,0,0,1-.84,3.81,5.3,5.3,0,0,1-5,2.67,6.38,6.38,0,0,1-2.64-.5,2.37,2.37,0,0,1-1.61-2.11,1.87,1.87,0,0,1,.1-.59,1.43,1.43,0,0,1,1.48-1,2.05,2.05,0,0,1,1.06.25,2.48,2.48,0,0,1,.83,1.7,3.92,3.92,0,0,0,.13.47q.21,1,1,1a1.18,1.18,0,0,0,.87-.34c.56-.56.84-2.27.84-5.15v-12.09h-2.79v-.83h9v.83Z"></path><path d="M714,1061.69a6.47,6.47,0,0,1,2.61,5.55,7,7,0,0,1-1.62,4.65,6.74,6.74,0,0,1-5.48,2.48,7.16,7.16,0,0,1-5.37-11.6,7.62,7.62,0,0,1,9.86-1.08Zm-7.35,9.21c.42,1.77,1.4,2.66,3,2.66a3,3,0,0,0,1.39-.31q1.89-1,1.89-6a15.68,15.68,0,0,0-.3-3.41c-.42-1.78-1.41-2.67-3-2.67a3.12,3.12,0,0,0-1.58.4q-1.68,1.1-1.68,5.8A16.66,16.66,0,0,0,706.66,1070.9Z"></path><path d="M724.5,1073.28c.27.06.4.32.4.78h-7.19v-.81a5.8,5.8,0,0,0,.9-.06c.72-.14,1.09-.68,1.09-1.61v-16.87h-2v-.8h5.4v9.45a5.79,5.79,0,0,1,.65-1.15,4.87,4.87,0,0,1,4-1.85,4.39,4.39,0,0,1,1.67.31q2.51,1,2.51,4.74v7.84h1.18a2.31,2.31,0,0,1,.37,0c.27.06.4.32.4.78H727v-.81a2.8,2.8,0,0,0,1.06-.15c.31-.17.46-.67.46-1.52V1065a5.29,5.29,0,0,0-.12-1.18,2.23,2.23,0,0,0-2.3-1.92,2.55,2.55,0,0,0-1.24.34c-1.17.68-1.76,1.94-1.76,3.78v7.19h1A2.31,2.31,0,0,1,724.5,1073.28Z"></path><path d="M742.16,1073.28c.27.06.4.32.4.78h-7.13v-.81a4.48,4.48,0,0,0,1-.09c.69-.15,1-.67,1-1.58v-10h-2v-.77h5.21l.16,2.57a5.57,5.57,0,0,1,.8-1.24,4.84,4.84,0,0,1,3.78-1.76,4.39,4.39,0,0,1,1.74.34q2.53,1,2.54,4.71v7.84h1.21a2.31,2.31,0,0,1,.37,0c.27.06.41.32.41.78h-7.1v-.81a3.16,3.16,0,0,0,1-.12c.47-.17.71-.68.71-1.55v-6.64a4.84,4.84,0,0,0-.15-1.24,2.13,2.13,0,0,0-2.2-1.83,2.57,2.57,0,0,0-1.18.31,4,4,0,0,0-1.86,3.41l0,7.66h1A2.31,2.31,0,0,1,742.16,1073.28Z"></path><path d="M520.92,1164.06v-.84h2.49v-16.93h-2.49v-.83h8.78v.83h-2.48v8.13l8.93-8.13h-2.48v-.83h5.7c0,.39-.32.67-.84.83a1.56,1.56,0,0,0-.46.07,4.75,4.75,0,0,0-1.92,1.33l-5,4.56,7.75,11h.46c.44,0,.71.32.84.84l-5.43,0-6.35-9.33-1.21,1.08v7.38h1.64a.93.93,0,0,1,.84.84Z"></path><path d="M555.67,1163.28c.27,0,.4.3.4.78h-5.14l-.16-2.73a6.29,6.29,0,0,1-.53.93,4.63,4.63,0,0,1-4,2.11q-4.41,0-4.44-5.15v-7.66h-2v-.77h5.39v8.93a5.39,5.39,0,0,0,.06.8c.21,1.55,1,2.33,2.36,2.33a2.52,2.52,0,0,0,1.24-.34,4,4,0,0,0,1.8-3.47l0-7.48h-1.86v-.77h5.27v12.46h1.21A1.79,1.79,0,0,1,555.67,1163.28Z"></path><path d="M564.39,1163.28c.27.06.41.32.41.78h-7.13v-.81a4.48,4.48,0,0,0,1-.09c.68-.15,1-.67,1-1.58v-10h-2v-.77h5.2l.16,2.57a5.62,5.62,0,0,1,.81-1.24,4.82,4.82,0,0,1,3.78-1.76,4.31,4.31,0,0,1,1.73.34q2.55,1,2.55,4.71v7.84h1.2a2.43,2.43,0,0,1,.38,0c.27.06.4.32.4.78h-7.1v-.81a3.12,3.12,0,0,0,1-.12c.48-.17.72-.68.72-1.55v-6.64a4.83,4.83,0,0,0-.16-1.24,2.12,2.12,0,0,0-2.2-1.83,2.6,2.6,0,0,0-1.18.31,4,4,0,0,0-1.86,3.41l0,7.66h1A2.22,2.22,0,0,1,564.39,1163.28Z"></path><path d="M580.06,1150.79v12.65a11.71,11.71,0,0,1-.43,3.31,4.25,4.25,0,0,1-4.31,3.29,4.68,4.68,0,0,1-1.93-.37,2,2,0,0,1-1.45-1.92,1.56,1.56,0,0,1,.06-.41,1.21,1.21,0,0,1,1.33-.93,1.4,1.4,0,0,1,1.15.5,7.2,7.2,0,0,1,.46,1.43q.22.9.84.9c.62,0,.94-.69,1-2q0-.43-.06-1.74-.06-2-.06-3.06v-10.89h-2.11v-.77Zm0-3.22a2,2,0,0,1-1.86,1.08,2.17,2.17,0,0,1-1-.22,1.91,1.91,0,0,1-1.15-1.86,2.14,2.14,0,0,1,.25-1,2,2,0,0,1,1.86-1.15,2.08,2.08,0,0,1,1,.25,2,2,0,0,1,1.15,1.89A2.21,2.21,0,0,1,580,1147.57Z"></path><path d="M594.78,1161.86a5.59,5.59,0,0,1-5.11,2.51,7.56,7.56,0,0,1-3.75-.93q-3.13-1.83-3.13-6.08a7.29,7.29,0,0,1,1.33-4.43,6.35,6.35,0,0,1,5.46-2.57,7.92,7.92,0,0,1,3.5.74,4,4,0,0,1,2.48,3.69,2.16,2.16,0,0,1-.31,1.18q-.93,1.42-5.58,1.33l-3.13-.06v.06q.15,6.17,3.78,6.17a4,4,0,0,0,1.33-.22,4.53,4.53,0,0,0,2.85-2.57l.75.25A5.8,5.8,0,0,1,594.78,1161.86Zm-5.92-10.61c-1.46.46-2.24,2.15-2.32,5.09l2.38.09a7.65,7.65,0,0,0,2-.15,1.71,1.71,0,0,0,1.05-1.83,5.8,5.8,0,0,0-.09-1c-.25-1.5-1-2.26-2.29-2.26A3.08,3.08,0,0,0,588.86,1151.25Z"></path><path d="M604.16,1163.28c.27.06.4.32.4.78h-8.15v-.81a6.42,6.42,0,0,0,1.46-.12c.62-.19.93-.73.93-1.61v-16.81h-2.39v-.8h5.8v19.34h1.58A2.31,2.31,0,0,1,604.16,1163.28Z"></path><path d="M613.16,1163.28c.31,0,.47.3.47.78h-7.44v-.81a4.39,4.39,0,0,0,1-.09c.68-.17,1-.69,1-1.58v-10h-2v-.77h5.42v12.46h1.27A1.14,1.14,0,0,1,613.16,1163.28Zm-1.49-15.71a2,2,0,0,1-1.86,1.08,2.17,2.17,0,0,1-1-.22,1.92,1.92,0,0,1-1.14-1.86,2.25,2.25,0,0,1,.24-1,2,2,0,0,1,1.86-1.15,2.08,2.08,0,0,1,1,.25,2,2,0,0,1,1.15,1.89A2.09,2.09,0,0,1,611.67,1147.57Z"></path><path d="M623.26,1161.55a5.2,5.2,0,0,1-.59,1.08,4.57,4.57,0,0,1-3.82,1.74,5,5,0,0,1-1.61-.25,3.26,3.26,0,0,1-2.32-3.44q0-4.12,8.15-4.25v-2a9.06,9.06,0,0,0-.06-1.09c-.21-1.46-.93-2.2-2.17-2.2a2,2,0,0,0-.9.19,2.49,2.49,0,0,0-1,1.58c-.08.25-.15.42-.19.53a1.56,1.56,0,0,1-1.55,1.14,1.87,1.87,0,0,1-.56-.09,1.3,1.3,0,0,1-1-1.36,1.88,1.88,0,0,1,.34-1.06c.77-1.16,2.45-1.73,5.06-1.73a8.62,8.62,0,0,1,1.64.15q3.78.75,3.78,4.74v6.51c0,1,.24,1.51.72,1.55s1-.75,1.11-2.2l.81,0a8.94,8.94,0,0,1-.22,1.49,2.5,2.5,0,0,1-2.73,1.74Q623.76,1164.34,623.26,1161.55Zm-2.17,1.33a3.75,3.75,0,0,0,2-2.76v-2.82a10.15,10.15,0,0,0-2.54.31,2.53,2.53,0,0,0-2.11,2.67v.31c.08,1.65.7,2.48,1.86,2.48A2.16,2.16,0,0,0,621.09,1162.88Z"></path><path d="M647.28,1164.06v-.84h2.14l-2.32-6h-6.26l-2.27,6h1.64a1.9,1.9,0,0,1,.35,0c.28.06.43.33.43.81h-5.64v-.84h2l6.82-17.76h1.92l7.26,17.76h1a1.52,1.52,0,0,1,.34,0c.29.06.43.33.43.81Zm-3.34-15-2.76,7.26h5.55Z"></path><path d="M663.17,1163.28c.27.06.4.32.4.78h-7.13v-.81a4.48,4.48,0,0,0,1-.09c.68-.15,1-.67,1-1.58v-10h-2v-.77h5.21l.15,2.57a6,6,0,0,1,.81-1.24,4.82,4.82,0,0,1,3.78-1.76,4.39,4.39,0,0,1,1.74.34q2.54,1,2.54,4.71v7.84h1.21a2.31,2.31,0,0,1,.37,0c.27.06.4.32.4.78h-7.1v-.81a3.19,3.19,0,0,0,1-.12c.47-.17.71-.68.71-1.55v-6.64a4.84,4.84,0,0,0-.15-1.24,2.13,2.13,0,0,0-2.21-1.83,2.56,2.56,0,0,0-1.17.31,4,4,0,0,0-1.86,3.41l0,7.66h1Z"></path><path d="M672.71,1150.88h2.14v-2.94l3.41-.65v3.59h4.34v.81h-4.34v9.39c0,.21,0,.42,0,.62.15,1.18.65,1.77,1.52,1.77s1.75-1,2.2-2.79l.84.12a7.69,7.69,0,0,1-.5,1.65,3.28,3.28,0,0,1-3.31,2c-2.61-.11-4-1.65-4.19-4.65v-8.06h-2.14Z"></path><path d="M695.44,1151.69a6.48,6.48,0,0,1,2.6,5.55,7.09,7.09,0,0,1-1.61,4.65,7.09,7.09,0,0,1-10.85-9.12,6.91,6.91,0,0,1,5.58-2.41A7,7,0,0,1,695.44,1151.69Zm-7.35,9.21c.41,1.77,1.39,2.66,2.94,2.66a3.06,3.06,0,0,0,1.4-.31q1.89-1,1.89-6a15,15,0,0,0-.31-3.41c-.41-1.78-1.41-2.67-3-2.67a3.14,3.14,0,0,0-1.58.4q-1.66,1.1-1.67,5.8A16,16,0,0,0,688.09,1160.9Z"></path><path d="M705.94,1163.28c.27.06.4.32.4.78h-7.13v-.81a4.35,4.35,0,0,0,1-.09c.69-.15,1-.67,1-1.58v-10h-2v-.77h5.21l.16,2.57a5.57,5.57,0,0,1,.8-1.24,4.86,4.86,0,0,1,3.79-1.76,4.34,4.34,0,0,1,1.73.34c1.7.7,2.54,2.27,2.54,4.71v7.84h1.21a2.22,2.22,0,0,1,.37,0c.27.06.41.32.41.78h-7.1v-.81a3.16,3.16,0,0,0,1-.12c.48-.17.71-.68.71-1.55v-6.64a4.84,4.84,0,0,0-.15-1.24,2.12,2.12,0,0,0-2.2-1.83,2.57,2.57,0,0,0-1.18.31,4,4,0,0,0-1.86,3.41l0,7.66h1A2.31,2.31,0,0,1,705.94,1163.28Z"></path><path d="M719.46,1168.89q1.45-.56,3-4.4l-5.9-12.93h-1.39v-.77h6.91v.77h-2l3.88,9.06,3.59-9.06h-2.32v-.77h4.77a2,2,0,0,1,0,.37c-.06.27-.31.4-.74.4a1.11,1.11,0,0,0-.28,0q-.43.09-.78.93l-4.62,11.81a17.37,17.37,0,0,1-1.3,2.69q-1.77,3-4.31,3a4.16,4.16,0,0,1-1.77-.37A1.9,1.9,0,0,1,715,1168a1.55,1.55,0,0,1,.06-.4,1.25,1.25,0,0,1,1.34-.9,1.32,1.32,0,0,1,.83.25,3.12,3.12,0,0,1,.75,1.3c.2.54.48.81.83.81A1.87,1.87,0,0,0,719.46,1168.89Z"></path><path d="M520.92,1254.06v-.84h2.49v-16.93h-2.49v-.83h10a7.3,7.3,0,0,1,4.15,1.14,4.31,4.31,0,0,1,2.05,3.73,5,5,0,0,1-.25,1.55,5.29,5.29,0,0,1-4,3.34l4.87,8h.65a2.31,2.31,0,0,1,.37,0c.27.07.4.32.4.78l-5.2,0-4.72-8.53h-2v7.66h2.48v.84Zm6.3-17.77v8.34h2.32a3.22,3.22,0,0,0,1.93-.59,4.17,4.17,0,0,0,1.58-3.62,5.32,5.32,0,0,0-.31-1.8,3.32,3.32,0,0,0-3.38-2.33Z"></path><path d="M550.83,1241.69a6.46,6.46,0,0,1,2.6,5.55,7,7,0,0,1-1.61,4.65,6.74,6.74,0,0,1-5.48,2.48,7.16,7.16,0,0,1-5.37-11.6,7.62,7.62,0,0,1,9.86-1.08Zm-7.35,9.21c.42,1.77,1.4,2.66,2.95,2.66a3,3,0,0,0,1.39-.31c1.27-.68,1.89-2.68,1.89-6a15.68,15.68,0,0,0-.3-3.41c-.42-1.78-1.41-2.67-3-2.67a3,3,0,0,0-1.58.41q-1.68,1.08-1.68,5.79A16.66,16.66,0,0,0,543.48,1250.9Z"></path><path d="M560.23,1253.5c1.39,0,2.24-.46,2.57-1.39a2,2,0,0,0,.1-.62c0-1-.65-1.83-2-2.52-.29-.14-.74-.35-1.36-.62a10.1,10.1,0,0,1-3.19-1.92,3.5,3.5,0,0,1,1.83-5.67,8,8,0,0,1,2.63-.4,7.26,7.26,0,0,1,3.72.86c0-.62.17-1,.5-1a1.55,1.55,0,0,1,.31,0V1244h-.93c-.09-1.87-1.12-2.83-3.1-2.85-1.39,0-2.25.44-2.58,1.31a2,2,0,0,0-.12.68c0,.86.62,1.62,1.86,2.26l1.3.59a9.86,9.86,0,0,1,3.26,2,3.64,3.64,0,0,1,.93,2.48,3.5,3.5,0,0,1-2.73,3.54,8,8,0,0,1-2.48.37,8.62,8.62,0,0,1-4.37-1c0,.53-.14.84-.41.93a2.63,2.63,0,0,1-.43,0v-4.72h1Q556.63,1253.48,560.23,1253.5Z"></path><path d="M576.12,1251.55a5.71,5.71,0,0,1-.59,1.08,4.57,4.57,0,0,1-3.82,1.74,4.94,4.94,0,0,1-1.61-.25,3.26,3.26,0,0,1-2.32-3.44q0-4.12,8.15-4.25v-2a9.18,9.18,0,0,0-.06-1.09c-.21-1.46-.93-2.2-2.17-2.2a2,2,0,0,0-.9.19,2.49,2.49,0,0,0-1,1.58l-.19.53a1.56,1.56,0,0,1-1.55,1.14,1.87,1.87,0,0,1-.56-.09,1.3,1.3,0,0,1-1-1.36,1.88,1.88,0,0,1,.34-1.06c.77-1.16,2.45-1.73,5.06-1.73a8.7,8.7,0,0,1,1.64.15q3.78.75,3.78,4.74v6.51c0,1,.24,1.51.71,1.55s1-.75,1.12-2.2l.81,0a10.13,10.13,0,0,1-.22,1.49,2.5,2.5,0,0,1-2.73,1.74Q576.62,1254.34,576.12,1251.55Zm-2.17,1.33a3.75,3.75,0,0,0,2-2.76v-2.82a10.15,10.15,0,0,0-2.54.31,2.53,2.53,0,0,0-2.11,2.67v.31c.08,1.65.7,2.48,1.86,2.48A2.16,2.16,0,0,0,574,1252.88Z"></path><path d="M598.16,1234.75q-4.81,1.82-4.84,11.62t4.78,11.5l-.31.84a9.91,9.91,0,0,1-5.27-3.54,13.76,13.76,0,0,1-2.76-8.74,15.39,15.39,0,0,1,1.52-6.85,10.11,10.11,0,0,1,6.6-5.67Z"></path><path d="M607.47,1253.28c.27.07.41.32.41.78h-8.16v-.81a6.42,6.42,0,0,0,1.46-.12c.62-.19.93-.72.93-1.61v-16.81h-2.39v-.8h5.8v19.34h1.58A2.31,2.31,0,0,1,607.47,1253.28Z"></path><path d="M617.47,1251.55a5.2,5.2,0,0,1-.59,1.08,4.57,4.57,0,0,1-3.82,1.74,5,5,0,0,1-1.61-.25,3.26,3.26,0,0,1-2.32-3.44q0-4.12,8.15-4.25v-2a9.18,9.18,0,0,0-.06-1.09c-.21-1.46-.93-2.2-2.17-2.2a2,2,0,0,0-.9.19,2.49,2.49,0,0,0-1,1.58l-.19.53a1.56,1.56,0,0,1-1.55,1.14,1.87,1.87,0,0,1-.56-.09,1.3,1.3,0,0,1-1-1.36,1.81,1.81,0,0,1,.34-1.06c.77-1.16,2.45-1.73,5.06-1.73a8.7,8.7,0,0,1,1.64.15q3.78.75,3.78,4.74v6.51c0,1,.24,1.51.71,1.55.62,0,1-.75,1.12-2.2l.81,0a10.13,10.13,0,0,1-.22,1.49,2.5,2.5,0,0,1-2.73,1.74Q618,1254.34,617.47,1251.55Zm-2.17,1.33a3.75,3.75,0,0,0,2-2.76v-2.82a10.15,10.15,0,0,0-2.54.31,2.53,2.53,0,0,0-2.11,2.67v.31c.08,1.65.7,2.48,1.86,2.48A2.16,2.16,0,0,0,615.3,1252.88Z"></path><path d="M623.44,1240.88h2.14v-2.94l3.41-.65v3.59h4.34v.81H629v9.39c0,.21,0,.42,0,.62.14,1.18.65,1.77,1.52,1.77s1.74-1,2.2-2.79l.84.12a7.69,7.69,0,0,1-.5,1.65,3.29,3.29,0,0,1-3.32,2c-2.6-.1-4-1.65-4.18-4.65v-8.06h-2.14Z"></path><path d="M646.8,1251.86a5.58,5.58,0,0,1-5.11,2.51,7.56,7.56,0,0,1-3.75-.93q-3.13-1.83-3.13-6.08a7.32,7.32,0,0,1,1.33-4.43,6.35,6.35,0,0,1,5.46-2.57,7.92,7.92,0,0,1,3.5.74,4,4,0,0,1,2.48,3.69,2.16,2.16,0,0,1-.31,1.18q-.93,1.42-5.58,1.33l-3.13-.06v.06q.15,6.17,3.78,6.17a4,4,0,0,0,1.33-.22,4.55,4.55,0,0,0,2.86-2.57l.74.25A5.8,5.8,0,0,1,646.8,1251.86Zm-5.92-10.61c-1.46.46-2.24,2.15-2.32,5.09l2.39.09a7.61,7.61,0,0,0,2-.15,1.71,1.71,0,0,0,1.05-1.83,5.89,5.89,0,0,0-.09-1c-.25-1.5-1-2.26-2.29-2.26A3.08,3.08,0,0,0,640.88,1241.25Z"></path><path d="M647.49,1233.91a10.15,10.15,0,0,1,6.61,5.67,15.53,15.53,0,0,1,1.52,6.85,13.76,13.76,0,0,1-2.76,8.74,10,10,0,0,1-5.27,3.54l-.31-.84q4.77-1.8,4.77-11.5t-4.84-11.62Z"></path><path d="M531,1344.37a9.32,9.32,0,0,1-9.73-9.64,9.81,9.81,0,0,1,1.92-6,9.15,9.15,0,0,1,7.81-3.62,11.07,11.07,0,0,1,5.95,1.58,5.12,5.12,0,0,1,.06-.9c.11-.35.42-.53.93-.53l.1,6h-1a15.11,15.11,0,0,0-.61-1.8,5.23,5.23,0,0,0-5.06-3.44,5.73,5.73,0,0,0-2,.34q-3.8,1.48-3.79,8.28,0,8.73,5.62,8.8a9.24,9.24,0,0,0,1.05-.06q3.66-.53,5-5.21h.93v6a2.18,2.18,0,0,1-.56-.06c-.35-.1-.51-.56-.49-1.36A13,13,0,0,1,531,1344.37Z"></path><path d="M552.22,1341.86a5.59,5.59,0,0,1-5.11,2.51,7.56,7.56,0,0,1-3.75-.93q-3.14-1.83-3.13-6.08a7.32,7.32,0,0,1,1.33-4.43,6.35,6.35,0,0,1,5.46-2.57,7.92,7.92,0,0,1,3.5.74,4,4,0,0,1,2.48,3.69,2.16,2.16,0,0,1-.31,1.18q-.93,1.42-5.58,1.33l-3.13-.06v.06q.15,6.17,3.78,6.17a4,4,0,0,0,1.33-.22,4.56,4.56,0,0,0,2.85-2.57l.75.25A5.8,5.8,0,0,1,552.22,1341.86Zm-5.92-10.61c-1.46.46-2.24,2.15-2.32,5.09l2.38.09a7.65,7.65,0,0,0,2-.15,1.71,1.71,0,0,0,1-1.83,5.89,5.89,0,0,0-.09-1c-.25-1.5-1-2.26-2.29-2.26A3.08,3.08,0,0,0,546.3,1331.25Z"></path><path d="M561.6,1343.28c.27.07.4.32.4.78h-8.15v-.81a6.42,6.42,0,0,0,1.46-.12c.62-.19.93-.72.93-1.61v-16.81h-2.39v-.8h5.8v19.34h1.58A2.31,2.31,0,0,1,561.6,1343.28Z"></path><path d="M570.6,1343.28c.31,0,.47.3.47.78h-7.44v-.81a4.39,4.39,0,0,0,1-.09c.68-.17,1-.69,1-1.58v-10h-2v-.78h5.42v12.46h1.27A1.14,1.14,0,0,1,570.6,1343.28Zm-1.49-15.71a2,2,0,0,1-1.86,1.08,2.17,2.17,0,0,1-1-.22,1.92,1.92,0,0,1-1.14-1.86,2.25,2.25,0,0,1,.24-1,2,2,0,0,1,1.86-1.15,2.05,2.05,0,0,1,1,.25,2.13,2.13,0,0,1,.9,2.89Z"></path><path d="M579.4,1343.28c.27.07.4.32.4.78h-7.13v-.81a4.48,4.48,0,0,0,1-.09c.68-.14,1-.67,1-1.58v-10h-2v-.78h5.21l.15,2.57a6.28,6.28,0,0,1,.81-1.24,4.85,4.85,0,0,1,3.78-1.76,4.39,4.39,0,0,1,1.74.34q2.53,1,2.54,4.71v7.84h1.21a2.31,2.31,0,0,1,.37,0c.27.07.4.32.4.78h-7.1v-.81a3.19,3.19,0,0,0,1-.12c.47-.17.71-.68.71-1.55v-6.64a4.84,4.84,0,0,0-.15-1.24,2.13,2.13,0,0,0-2.21-1.82,2.54,2.54,0,0,0-1.17.3,4,4,0,0,0-1.87,3.41l0,7.66h1Z"></path><path d="M598.41,1341.55a4.77,4.77,0,0,1-.59,1.08,4.56,4.56,0,0,1-3.81,1.74,4.94,4.94,0,0,1-1.61-.25,3.26,3.26,0,0,1-2.33-3.44q0-4.12,8.16-4.25v-2a9.18,9.18,0,0,0-.06-1.09c-.21-1.46-.93-2.2-2.17-2.2a2,2,0,0,0-.9.19,2.41,2.41,0,0,0-1,1.58l-.19.53a1.57,1.57,0,0,1-1.55,1.14,1.82,1.82,0,0,1-.56-.09,1.3,1.3,0,0,1-1-1.36,1.81,1.81,0,0,1,.34-1.06c.76-1.16,2.45-1.73,5-1.73a8.73,8.73,0,0,1,1.65.15q3.78.75,3.78,4.74v6.51c0,1,.24,1.51.71,1.55s1-.75,1.12-2.2l.8,0a9,9,0,0,1-.21,1.49,2.5,2.5,0,0,1-2.73,1.74C599.73,1344.35,598.74,1343.41,598.41,1341.55Zm-2.17,1.33a3.76,3.76,0,0,0,2-2.76v-2.82a10.24,10.24,0,0,0-2.55.31,2.53,2.53,0,0,0-2.1,2.67v.31c.08,1.65.7,2.48,1.86,2.48A2.15,2.15,0,0,0,596.24,1342.88Z"></path><path d="M611.31,1344.06v-.84h2.48v-16.93h-2.48v-.83h8.77v.83H617.6v16.93h1.65a.93.93,0,0,1,.83.84Z"></path><path d="M620.47,1330.88h2.14v-2.94l3.41-.65v3.59h4.34v.81H626v9.39c0,.21,0,.42,0,.62.15,1.18.65,1.77,1.52,1.77s1.75-1,2.2-2.79l.84.12a7.69,7.69,0,0,1-.5,1.65,3.28,3.28,0,0,1-3.31,2c-2.61-.1-4-1.65-4.19-4.65v-8.06h-2.14Z"></path><path d="M631.72,1330.88h2.14v-2.94l3.41-.65v3.59h4.34v.81h-4.34v9.39c0,.21,0,.42,0,.62.15,1.18.65,1.77,1.52,1.77s1.75-1,2.2-2.79l.84.12a7.16,7.16,0,0,1-.5,1.65,3.27,3.27,0,0,1-3.31,2c-2.61-.1-4-1.65-4.19-4.65v-8.06h-2.14Z"></path><path d="M650.09,1343.28c.31,0,.47.3.47.78h-7.44v-.81a4.39,4.39,0,0,0,1-.09c.68-.17,1-.69,1-1.58v-10h-2v-.78h5.42v12.46h1.27A1.14,1.14,0,0,1,650.09,1343.28Zm-1.48-15.71a2,2,0,0,1-1.86,1.08,2.22,2.22,0,0,1-1-.22,1.92,1.92,0,0,1-1.14-1.86,2.14,2.14,0,0,1,.25-1,2,2,0,0,1,1.86-1.15,2.08,2.08,0,0,1,1,.25,2,2,0,0,1,1.14,1.89A2.14,2.14,0,0,1,648.61,1327.57Z"></path><path d="M655.13,1348.89q1.46-.56,3-4.4l-5.9-12.92h-1.39v-.78h6.91v.78h-1.95l3.87,9,3.6-9H661v-.78h4.77a2,2,0,0,1,0,.37c-.06.27-.31.41-.74.41a1.14,1.14,0,0,0-.28,0q-.44.09-.78.93l-4.62,11.81a18,18,0,0,1-1.3,2.7q-1.77,3-4.31,3a4.16,4.16,0,0,1-1.77-.37,1.9,1.9,0,0,1-1.3-1.71,1.55,1.55,0,0,1,.06-.4,1.25,1.25,0,0,1,1.34-.9,1.39,1.39,0,0,1,.83.25,3.12,3.12,0,0,1,.75,1.3c.2.54.48.81.83.81A1.87,1.87,0,0,0,655.13,1348.89Z"></path><path d="M674.73,1341.55a4.77,4.77,0,0,1-.59,1.08,4.57,4.57,0,0,1-3.81,1.74,4.9,4.9,0,0,1-1.61-.25,3.26,3.26,0,0,1-2.33-3.44q0-4.12,8.15-4.25v-2a9.18,9.18,0,0,0-.06-1.09c-.21-1.46-.93-2.2-2.17-2.2a2,2,0,0,0-.9.19,2.49,2.49,0,0,0-1,1.58c-.08.25-.14.42-.18.53a1.57,1.57,0,0,1-1.55,1.14,1.77,1.77,0,0,1-.56-.09,1.3,1.3,0,0,1-1-1.36,1.81,1.81,0,0,1,.34-1.06c.76-1.16,2.45-1.73,5-1.73a8.55,8.55,0,0,1,1.64.15q3.78.75,3.78,4.74v6.51c0,1,.24,1.51.72,1.55s1-.75,1.11-2.2l.81,0a8,8,0,0,1-.22,1.49,2.5,2.5,0,0,1-2.73,1.74Q675.22,1344.34,674.73,1341.55Zm-2.17,1.33a3.75,3.75,0,0,0,2-2.76v-2.82a10.15,10.15,0,0,0-2.54.31,2.54,2.54,0,0,0-2.11,2.67v.31c.09,1.65.71,2.48,1.86,2.48A2.16,2.16,0,0,0,672.56,1342.88Z"></path><path d="M684.43,1331.57l3.6,9.73,3.72-9.73H689.3v-.78h4.93a1.74,1.74,0,0,1-.07.59c0,.12-.23.19-.58.19a2.43,2.43,0,0,0-.38,0c-.33.06-.6.37-.8.93l-4.47,11.68H687a2.1,2.1,0,0,1-1-.18,4.44,4.44,0,0,1-1.18-2L681,1331.57h-1.27v-.78h6.79v.78Z"></path><path d="M702.55,1343.28c.3,0,.46.3.46.78h-7.44v-.81a4.39,4.39,0,0,0,1-.09c.68-.17,1-.69,1-1.58v-10h-2v-.78H701v12.46h1.27A1.27,1.27,0,0,1,702.55,1343.28Zm-1.49-15.71a2,2,0,0,1-1.86,1.08,2.17,2.17,0,0,1-1-.22,1.91,1.91,0,0,1-1.15-1.86,2.14,2.14,0,0,1,.25-1,2,2,0,0,1,1.86-1.15,2.08,2.08,0,0,1,1,.25,2,2,0,0,1,1.14,1.89A2.14,2.14,0,0,1,701.06,1327.57Z"></path><path d="M712.56,1343.28c.31,0,.47.3.47.78h-8.4v-.81a4.82,4.82,0,0,0,1-.09c.62-.17.93-.69.93-1.58v-10h-2v-.78h5.11l.19,2.91a5.64,5.64,0,0,1,1-1.61,4.59,4.59,0,0,1,3.38-1.55,3.2,3.2,0,0,1,.75.09,1.75,1.75,0,0,1,1.45,1.87,1.78,1.78,0,0,1-.15.71,1.62,1.62,0,0,1-1.58,1.08,1.87,1.87,0,0,1-.59-.09,2.18,2.18,0,0,1-1.12-1.18c-.27-.47-.54-.71-.8-.71a1.08,1.08,0,0,0-.59.22c-1,.68-1.53,2-1.68,4v6.72h2.27A1.12,1.12,0,0,1,712.56,1343.28Z"></path><path d="M725.83,1341.55a4.77,4.77,0,0,1-.59,1.08,4.57,4.57,0,0,1-3.81,1.74,4.9,4.9,0,0,1-1.61-.25,3.26,3.26,0,0,1-2.33-3.44q0-4.12,8.15-4.25v-2a9.18,9.18,0,0,0-.06-1.09c-.2-1.46-.93-2.2-2.17-2.2a2,2,0,0,0-.9.19,2.49,2.49,0,0,0-1,1.58c-.08.25-.14.42-.18.53a1.57,1.57,0,0,1-1.55,1.14,1.77,1.77,0,0,1-.56-.09,1.3,1.3,0,0,1-1-1.36,1.81,1.81,0,0,1,.34-1.06c.76-1.16,2.45-1.73,5-1.73a8.55,8.55,0,0,1,1.64.15c2.52.5,3.79,2.08,3.79,4.74v6.51c0,1,.23,1.51.71,1.55s1-.75,1.11-2.2l.81,0a8,8,0,0,1-.22,1.49,2.49,2.49,0,0,1-2.72,1.74C727.14,1344.35,726.16,1343.41,725.83,1341.55Zm-2.17,1.33a3.75,3.75,0,0,0,2-2.76v-2.82a10.15,10.15,0,0,0-2.54.31,2.54,2.54,0,0,0-2.11,2.67v.31c.09,1.65.71,2.48,1.86,2.48A2.16,2.16,0,0,0,723.66,1342.88Z"></path><path d="M739.71,1343.28c.27.07.41.32.41.78h-7.2v-.81a5.62,5.62,0,0,0,.9-.06c.73-.14,1.09-.68,1.09-1.61v-16.87h-2v-.8h5.4v9.45a5.46,5.46,0,0,1,.65-1.14,4.86,4.86,0,0,1,4-1.86,4.35,4.35,0,0,1,1.67.31c1.68.7,2.51,2.28,2.51,4.74v7.84h1.18a2.22,2.22,0,0,1,.37,0c.27.07.41.32.41.78h-6.88v-.81a2.78,2.78,0,0,0,1-.15c.31-.17.46-.67.46-1.52V1335a5.29,5.29,0,0,0-.12-1.18,2.23,2.23,0,0,0-2.29-1.92,2.5,2.5,0,0,0-1.24.34q-1.77,1-1.77,3.78v7.19h1A2.22,2.22,0,0,1,739.71,1343.28Z"></path><path d="M529.79,1434.21a1.79,1.79,0,0,1-1-.24,6.1,6.1,0,0,1-1.18-2.21l-6-15.47h-1.68v-.83h7.94v.83h-2.45l5.36,13.61,4.87-13.61h-2.48v-.83h5.24v.83H536.8l-6.45,17.92Z"></path><path d="M541.07,1433.16a1.86,1.86,0,0,1-1.77,1,2.26,2.26,0,0,1-.87-.18,1.84,1.84,0,0,1-1.11-1.8,2,2,0,0,1,.21-.9,1.83,1.83,0,0,1,1.77-1.12,2,2,0,0,1,.93.25,1.87,1.87,0,0,1,1.09,1.77A1.91,1.91,0,0,1,541.07,1433.16Z"></path><path d="M559.24,1434.37a9.32,9.32,0,0,1-9.74-9.64,9.81,9.81,0,0,1,1.92-6,9.17,9.17,0,0,1,7.82-3.62,11.09,11.09,0,0,1,6,1.58,5.12,5.12,0,0,1,.06-.9c.1-.35.41-.53.93-.53l.09,6h-1a15.06,15.06,0,0,0-.62-1.8,5.22,5.22,0,0,0-5-3.44,5.75,5.75,0,0,0-2,.34q-3.78,1.48-3.78,8.28,0,8.73,5.61,8.8a9.55,9.55,0,0,0,1.06-.06c2.43-.35,4.09-2.09,5-5.21h.93v6a2.12,2.12,0,0,1-.56-.06c-.35-.1-.52-.56-.5-1.36A13,13,0,0,1,559.24,1434.37Z"></path><path d="M573.18,1433.16a1.88,1.88,0,0,1-1.77,1,2.26,2.26,0,0,1-.87-.18,1.85,1.85,0,0,1-1.12-1.8,2.06,2.06,0,0,1,.22-.9,1.82,1.82,0,0,1,1.77-1.12,2,2,0,0,1,.93.25,1.86,1.86,0,0,1,1.08,1.77A1.9,1.9,0,0,1,573.18,1433.16Z"></path><path d="M589.85,1416.29v11.88A7.89,7.89,0,0,1,589,1432a5.31,5.31,0,0,1-5.06,2.67,6.3,6.3,0,0,1-2.63-.5,2.35,2.35,0,0,1-1.61-2.11,2.17,2.17,0,0,1,.09-.59,1.45,1.45,0,0,1,1.49-1,2,2,0,0,1,1.05.25,2.48,2.48,0,0,1,.84,1.7,2.81,2.81,0,0,0,.12.47c.15.68.5,1,1.06,1a1.18,1.18,0,0,0,.87-.34c.55-.56.83-2.27.83-5.14v-12.1h-2.79v-.83h9v.83Z"></path><path d="M604.51,1421.69a6.48,6.48,0,0,1,2.6,5.55,7.09,7.09,0,0,1-1.61,4.65,7.09,7.09,0,0,1-10.85-9.12,6.91,6.91,0,0,1,5.58-2.41A7,7,0,0,1,604.51,1421.69Zm-7.35,9.21c.41,1.77,1.39,2.66,2.94,2.66a3,3,0,0,0,1.4-.31q1.89-1,1.89-6a15,15,0,0,0-.31-3.41c-.41-1.78-1.41-2.67-3-2.67a3,3,0,0,0-1.58.41q-1.66,1.08-1.67,5.79A16,16,0,0,0,597.16,1430.9Z"></path><path d="M613.91,1433.5c1.38,0,2.24-.46,2.57-1.39a2.27,2.27,0,0,0,.09-.62c0-1-.65-1.83-2-2.52-.29-.14-.74-.35-1.37-.62a10.23,10.23,0,0,1-3.19-1.92,3.5,3.5,0,0,1,1.83-5.67,8.09,8.09,0,0,1,2.64-.4,7.31,7.31,0,0,1,3.72.86c0-.62.16-1,.49-1l.31,0V1424h-.93c-.08-1.87-1.11-2.83-3.1-2.85-1.38,0-2.24.44-2.57,1.31a2,2,0,0,0-.12.68c0,.86.62,1.62,1.85,2.26l1.31.59a9.79,9.79,0,0,1,3.25,2,3.64,3.64,0,0,1,.93,2.48,3.5,3.5,0,0,1-2.73,3.54,8,8,0,0,1-2.48.37,8.64,8.64,0,0,1-4.37-1c0,.53-.13.84-.4.93a2.72,2.72,0,0,1-.43,0v-4.72h1Q610.31,1433.48,613.91,1433.5Z"></path><path d="M633.49,1431.86a5.59,5.59,0,0,1-5.11,2.51,7.62,7.62,0,0,1-3.76-.93c-2.08-1.22-3.13-3.25-3.13-6.08a7.32,7.32,0,0,1,1.34-4.43,6.34,6.34,0,0,1,5.45-2.57,8,8,0,0,1,3.51.74,4,4,0,0,1,2.48,3.69A2.25,2.25,0,0,1,634,1426q-.93,1.42-5.58,1.33l-3.14-.06v.06q.16,6.17,3.79,6.17a4.08,4.08,0,0,0,1.33-.22,4.56,4.56,0,0,0,2.85-2.57l.75.25A6.77,6.77,0,0,1,633.49,1431.86Zm-5.92-10.61c-1.47.46-2.24,2.15-2.33,5.09l2.39.09a7.65,7.65,0,0,0,2-.15,1.71,1.71,0,0,0,1-1.83,5.89,5.89,0,0,0-.09-1c-.25-1.5-1-2.26-2.3-2.26A3,3,0,0,0,627.57,1421.25Z"></path><path d="M532.05,1524.06v-.84h2.14l-2.32-6h-6.26l-2.27,6H525a1.87,1.87,0,0,1,.34,0c.29.06.43.33.43.81h-5.64v-.84h2l6.82-17.76h1.93l7.25,17.76h1a1.46,1.46,0,0,1,.34,0c.29.06.44.33.44.81Zm-3.34-15-2.76,7.26h5.55Z"></path><path d="M547.72,1523.28c.31,0,.47.3.47.78h-7v-.81a4.35,4.35,0,0,0,1-.09c.69-.14,1-.67,1-1.58v-10h-2v-.78h5.21l.16,2.48.24-.5a4.49,4.49,0,0,1,4.13-2.41,3.5,3.5,0,0,1,1,.15,3.9,3.9,0,0,1,2.6,2.88,1.89,1.89,0,0,1,.1-.21,4.67,4.67,0,0,1,4.37-2.82,3.63,3.63,0,0,1,2,.59,4.68,4.68,0,0,1,2.05,4.34v8h1.18a2.31,2.31,0,0,1,.37,0c.27.07.4.32.4.78h-7v-.81a2.67,2.67,0,0,0,1-.15c.39-.17.59-.67.59-1.52v-6.64a5.19,5.19,0,0,0-.22-1.55,2,2,0,0,0-2-1.58,2,2,0,0,0-.81.19,3.64,3.64,0,0,0-1.83,3v8.24h.81a2.31,2.31,0,0,1,.37,0c.27.07.4.32.4.78h-6.6v-.81a2.6,2.6,0,0,0,1-.15c.4-.17.59-.67.59-1.52v-6.64a5.33,5.33,0,0,0-.21-1.55c-.36-1-1-1.51-1.8-1.51a2.05,2.05,0,0,0-1,.27,4,4,0,0,0-1.8,3.44l0,7.66h.83A1.14,1.14,0,0,1,547.72,1523.28Z"></path><path d="M573.1,1523.28c.31,0,.46.3.46.78h-7v-.81a4.48,4.48,0,0,0,1-.09c.68-.14,1-.67,1-1.58v-10h-2v-.78h5.21l.15,2.48c.08-.17.17-.33.25-.5a4.47,4.47,0,0,1,4.12-2.41,3.5,3.5,0,0,1,1,.15,3.91,3.91,0,0,1,2.61,2.88,1.65,1.65,0,0,1,.09-.21,4.67,4.67,0,0,1,4.37-2.82,3.64,3.64,0,0,1,2,.59,4.69,4.69,0,0,1,2,4.34v8h1.18a2.22,2.22,0,0,1,.37,0c.27.07.41.32.41.78h-7v-.81a2.6,2.6,0,0,0,1-.15c.4-.17.59-.67.59-1.52v-6.64a5.53,5.53,0,0,0-.21-1.55,2,2,0,0,0-2-1.58,2,2,0,0,0-.8.19,3.59,3.59,0,0,0-1.83,3v8.24h.8a2.43,2.43,0,0,1,.38,0c.26.07.4.32.4.78h-6.6v-.81a2.67,2.67,0,0,0,1-.15c.39-.17.59-.67.59-1.52v-6.64a5,5,0,0,0-.22-1.55,1.88,1.88,0,0,0-1.8-1.51,2.05,2.05,0,0,0-1,.27,4.06,4.06,0,0,0-1.8,3.44l0,7.66h.84A1.27,1.27,0,0,1,573.1,1523.28Z"></path><path d="M599,1523.28c.31,0,.47.3.47.78H592v-.81a4.39,4.39,0,0,0,1-.09c.68-.17,1-.69,1-1.58v-10h-2v-.78h5.42v12.46h1.27A1.14,1.14,0,0,1,599,1523.28Zm-1.49-15.71a2,2,0,0,1-1.85,1.08,2.19,2.19,0,0,1-1-.22,1.92,1.92,0,0,1-1.14-1.86,2.25,2.25,0,0,1,.24-1,2,2,0,0,1,1.87-1.15,2.08,2.08,0,0,1,1,.25,2.13,2.13,0,0,1,.89,2.89Z"></path><path d="M607.79,1523.28c.27.07.4.32.4.78h-7.13v-.81a4.48,4.48,0,0,0,1-.09c.68-.14,1-.67,1-1.58v-10h-2v-.78h5.21l.15,2.57a6.28,6.28,0,0,1,.81-1.24,4.87,4.87,0,0,1,3.78-1.76,4.39,4.39,0,0,1,1.74.34q2.54,1,2.54,4.71v7.84h1.21a2.31,2.31,0,0,1,.37,0c.27.07.41.32.41.78h-7.1v-.81a3.16,3.16,0,0,0,1-.12c.47-.17.71-.68.71-1.55v-6.64a4.84,4.84,0,0,0-.15-1.24,2.12,2.12,0,0,0-2.2-1.82,2.55,2.55,0,0,0-1.18.3,4,4,0,0,0-1.86,3.41l0,7.66h1A2.31,2.31,0,0,1,607.79,1523.28Z"></path><path d="M625.83,1523.28c.31,0,.47.3.47.78h-7.44v-.81a4.39,4.39,0,0,0,1-.09c.68-.17,1-.69,1-1.58v-10h-2v-.78h5.42v12.46h1.27A1.14,1.14,0,0,1,625.83,1523.28Zm-1.49-15.71a2,2,0,0,1-1.86,1.08,2.17,2.17,0,0,1-1-.22,1.92,1.92,0,0,1-1.14-1.86,2.14,2.14,0,0,1,.25-1,2,2,0,0,1,1.85-1.15,2.09,2.09,0,0,1,1,.25,2.13,2.13,0,0,1,.89,2.89Z"></path><path d="M633.89,1524.06v-.84h2.48v-16.93h-2.48v-.83h10a8,8,0,0,1,3.53.71,4.35,4.35,0,0,1,2.6,4.22,5.39,5.39,0,0,1-.49,2.32c-1,2.11-3.24,3.16-6.73,3.16h-2.6v7.35h2.26q.64.06.84.84Zm6.3-17.77v8.65h2.41c2.22-.16,3.32-1.62,3.32-4.37,0-.29,0-.57,0-.83-.25-2.3-1.38-3.45-3.41-3.45Z"></path><path d="M659.44,1521.55a5.2,5.2,0,0,1-.59,1.08,4.57,4.57,0,0,1-3.81,1.74,5,5,0,0,1-1.62-.25,3.26,3.26,0,0,1-2.32-3.44q0-4.12,8.15-4.25v-2a9.18,9.18,0,0,0-.06-1.09c-.21-1.46-.93-2.2-2.17-2.2a2,2,0,0,0-.9.19,2.49,2.49,0,0,0-1,1.58c-.08.25-.15.42-.19.53a1.56,1.56,0,0,1-1.55,1.14,1.76,1.76,0,0,1-.55-.09,1.3,1.3,0,0,1-1-1.36,1.88,1.88,0,0,1,.34-1.06c.77-1.16,2.45-1.73,5.06-1.73a8.62,8.62,0,0,1,1.64.15q3.78.75,3.78,4.74v6.51c0,1,.24,1.51.72,1.55s1-.75,1.11-2.2l.81,0a8.94,8.94,0,0,1-.22,1.49,2.5,2.5,0,0,1-2.73,1.74Q659.94,1524.34,659.44,1521.55Zm-2.17,1.33a3.75,3.75,0,0,0,2-2.76v-2.82a10.15,10.15,0,0,0-2.54.31,2.53,2.53,0,0,0-2.11,2.67v.31c.08,1.65.7,2.48,1.86,2.48A2.16,2.16,0,0,0,657.27,1522.88Z"></path><path d="M681.32,1523.28c.27,0,.4.3.4.78h-5.14l-.16-2.73a6.29,6.29,0,0,1-.53.93,4.64,4.64,0,0,1-4,2.11q-4.39,0-4.43-5.15v-7.65h-2v-.78h5.39v8.93a5.29,5.29,0,0,0,.06.8c.21,1.55,1,2.33,2.36,2.33a2.52,2.52,0,0,0,1.24-.34,4.07,4.07,0,0,0,1.8-3.47l0-7.47H674.5v-.78h5.27v12.46H681A1.87,1.87,0,0,1,681.32,1523.28Z"></path><path d="M691,1523.28c.27.07.4.32.4.78h-8.15v-.81a6.42,6.42,0,0,0,1.46-.12c.62-.19.93-.72.93-1.61v-16.81h-2.39v-.8h5.8v19.34h1.58A2.31,2.31,0,0,1,691,1523.28Z"></path><path d="M520.92,1614.06v-.84h2.49v-16.93h-2.49v-.83h10a7.3,7.3,0,0,1,4.15,1.14,4.31,4.31,0,0,1,2.05,3.73,5,5,0,0,1-.25,1.55,5.29,5.29,0,0,1-4,3.34l4.87,8h.65a2.31,2.31,0,0,1,.37,0c.27.07.4.32.4.78l-5.2,0-4.72-8.53h-2v7.66h2.48v.84Zm6.3-17.77v8.34h2.32a3.22,3.22,0,0,0,1.93-.59,4.17,4.17,0,0,0,1.58-3.62,5.32,5.32,0,0,0-.31-1.8,3.32,3.32,0,0,0-3.38-2.33Z"></path><path d="M555.19,1613.28c.27,0,.41.3.41.78h-5.15l-.15-2.73a8.8,8.8,0,0,1-.53.93,4.65,4.65,0,0,1-4,2.11c-2.94,0-4.41-1.74-4.43-5.15v-7.65h-2v-.78h5.4v8.93a5.29,5.29,0,0,0,.06.8c.2,1.55,1,2.33,2.35,2.33a2.5,2.5,0,0,0,1.24-.34,4,4,0,0,0,1.8-3.47l0-7.47h-1.86v-.78h5.27v12.46h1.21A1.72,1.72,0,0,1,555.19,1613.28Z"></path><path d="M561.88,1611.92l-.28,2.14h-4.47v-.81a4.68,4.68,0,0,0,1-.09c.62-.17.93-.7.93-1.61v-16.84h-1.93v-.8h5.37v9.73l.06-.12a5,5,0,0,1,4.8-3.16,4.82,4.82,0,0,1,3.07,1.05q2.3,1.83,2.3,5.67a7.69,7.69,0,0,1-1.68,5.09,5.9,5.9,0,0,1-4.74,2.2A5,5,0,0,1,561.88,1611.92Zm2.38-9.46q-1.78,1.56-1.79,5.55a10.16,10.16,0,0,0,.37,2.92c.51,1.75,1.49,2.63,2.91,2.63a2.65,2.65,0,0,0,.87-.15c1.59-.56,2.39-2.55,2.39-6v-.68c-.13-3.3-1.12-5-3-5A2.71,2.71,0,0,0,564.26,1602.46Z"></path><path d="M577.59,1618.89q1.47-.56,3-4.4l-5.89-12.92h-1.39v-.78h6.91v.78h-2l3.87,9,3.6-9h-2.33v-.78h4.78a2,2,0,0,1,0,.37c-.07.27-.31.41-.75.41a1.27,1.27,0,0,0-.28,0c-.29.06-.54.37-.77.93l-4.62,11.81a18,18,0,0,1-1.3,2.7q-1.77,3-4.31,3a4.16,4.16,0,0,1-1.77-.37,1.89,1.89,0,0,1-1.3-1.71,1.55,1.55,0,0,1,.06-.4,1.24,1.24,0,0,1,1.33-.9,1.44,1.44,0,0,1,.84.25,3.12,3.12,0,0,1,.75,1.3c.2.54.48.81.83.81A1.79,1.79,0,0,0,577.59,1618.89Z"></path><path d="M603.7,1596.29v11.88a7.89,7.89,0,0,1-.84,3.81,5.31,5.31,0,0,1-5.05,2.67,6.31,6.31,0,0,1-2.64-.5,2.37,2.37,0,0,1-1.61-2.11,2.17,2.17,0,0,1,.09-.59,1.45,1.45,0,0,1,1.49-1,2,2,0,0,1,1.05.25,2.44,2.44,0,0,1,.84,1.7,2,2,0,0,0,.13.47q.21,1,1.05,1a1.18,1.18,0,0,0,.87-.34c.56-.56.84-2.27.84-5.14v-12.1h-2.8v-.83h9v.83Z"></path><path d="M618.35,1601.69a6.48,6.48,0,0,1,2.6,5.55,7.09,7.09,0,0,1-1.61,4.65,7.25,7.25,0,0,1-9.86,1,6.84,6.84,0,0,1-2.54-5.64,6.77,6.77,0,0,1,1.55-4.47,6.91,6.91,0,0,1,5.58-2.41A7,7,0,0,1,618.35,1601.69ZM611,1610.9c.41,1.77,1.4,2.66,3,2.66a3,3,0,0,0,1.39-.31q1.89-1,1.89-6a15,15,0,0,0-.31-3.41q-.61-2.67-3-2.67a3.08,3.08,0,0,0-1.59.41q-1.67,1.08-1.67,5.79A16,16,0,0,0,611,1610.9Z"></path><path d="M627.75,1613.5c1.38,0,2.24-.46,2.57-1.39a2.27,2.27,0,0,0,.09-.62c0-1-.65-1.83-1.95-2.52-.29-.14-.74-.35-1.36-.62a10.18,10.18,0,0,1-3.2-1.92,3.47,3.47,0,0,1-.83-2.29,3.43,3.43,0,0,1,2.66-3.38,8.13,8.13,0,0,1,2.64-.4,7.26,7.26,0,0,1,3.72.86c0-.62.16-1,.49-1l.31,0V1604H632c-.08-1.87-1.11-2.83-3.1-2.85-1.38,0-2.24.44-2.57,1.31a2,2,0,0,0-.12.68c0,.86.62,1.62,1.86,2.26l1.3.59a9.68,9.68,0,0,1,3.25,2,3.64,3.64,0,0,1,.93,2.48,3.5,3.5,0,0,1-2.72,3.54,8.12,8.12,0,0,1-2.48.37,8.65,8.65,0,0,1-4.38-1c0,.53-.13.84-.4.93a2.72,2.72,0,0,1-.43,0v-4.72h1Q624.15,1613.48,627.75,1613.5Z"></path><path d="M647.33,1611.86a5.59,5.59,0,0,1-5.11,2.51,7.56,7.56,0,0,1-3.75-.93q-3.13-1.83-3.13-6.08a7.32,7.32,0,0,1,1.33-4.43,6.34,6.34,0,0,1,5.45-2.57,8,8,0,0,1,3.51.74,4,4,0,0,1,2.48,3.69,2.25,2.25,0,0,1-.31,1.18q-.93,1.42-5.58,1.33l-3.13-.06v.06q.15,6.17,3.78,6.17a4,4,0,0,0,1.33-.22,4.56,4.56,0,0,0,2.85-2.57l.75.25A6.77,6.77,0,0,1,647.33,1611.86Zm-5.92-10.61c-1.47.46-2.24,2.15-2.32,5.09l2.38.09a7.65,7.65,0,0,0,2-.15,1.71,1.71,0,0,0,1-1.83,5.89,5.89,0,0,0-.09-1c-.25-1.5-1-2.26-2.3-2.26A3.07,3.07,0,0,0,641.41,1601.25Z"></path><path class="cls-1" d="M590.19,798.34,587.34,796a211.06,211.06,0,0,1-20.08-19.12c-13.79-15-20.79-27.81-20.79-37.95a4.5,4.5,0,0,1,9,0c0,14.71,22.9,37.51,34.72,47.7,11.81-10.2,34.71-33,34.71-47.7a4.5,4.5,0,0,1,9,0c0,10.14-7,22.91-20.79,37.95A211.06,211.06,0,0,1,593,796Z"></path><path class="cls-1" d="M590.19,777l-2.85-2.31c-2.58-2.11-25.29-21-25.29-35.78a4.5,4.5,0,0,1,9,0c0,2.39,1.39,7.91,10.64,18,3.16,3.44,6.33,6.42,8.52,8.36,8.35-7.39,19.11-19.28,19.11-26.36a4.5,4.5,0,0,1,9,0c0,14.76-22.7,33.67-25.29,35.78Z"></path><path class="cls-1" d="M590.19,757.6l-2.85-2.31c-2.59-2.12-11.06-9.54-11.06-16.34a4.5,4.5,0,0,1,9,0c0,1.2,2.18,4.07,4.91,6.78,2.72-2.71,4.86-5.58,4.9-6.79a4.5,4.5,0,1,1,9,0c0,6.8-8.47,14.22-11.06,16.34Z"></path><path class="cls-1" d="M603.37,714.89a11.57,11.57,0,0,0-3.7-2.1,11.45,11.45,0,0,0,.67-3.9,10.87,10.87,0,0,0-.05-1.14,11.69,11.69,0,0,1-8.74,5.78,11.63,11.63,0,0,1,5.78-8.74,10.93,10.93,0,0,0-1.15-.06,11.7,11.7,0,0,0-3.9.67,11.63,11.63,0,0,0-2.1-3.69,11.8,11.8,0,0,0-2.09,3.69,11.7,11.7,0,0,0-3.9-.67,10.74,10.74,0,0,0-1.14.06,11.66,11.66,0,0,1,5.78,8.74,11.69,11.69,0,0,1-8.75-5.78c0,.38-.05.76-.05,1.14a11.7,11.7,0,0,0,.67,3.9,11.68,11.68,0,0,0-3.7,2.1,11.79,11.79,0,0,0,3.7,2.1,11.69,11.69,0,0,0-.67,3.89c0,.39,0,.77.05,1.15a11.66,11.66,0,0,1,8.75-5.78,11.66,11.66,0,0,1-5.78,8.74,10.74,10.74,0,0,0,1.14.06,11.7,11.7,0,0,0,3.9-.67,11.8,11.8,0,0,0,2.09,3.69,11.63,11.63,0,0,0,2.1-3.69,11.7,11.7,0,0,0,3.9.67,10.93,10.93,0,0,0,1.15-.06,11.63,11.63,0,0,1-5.78-8.74,11.66,11.66,0,0,1,8.74,5.78,10.94,10.94,0,0,0,.05-1.15,11.44,11.44,0,0,0-.67-3.89A11.57,11.57,0,0,0,603.37,714.89Z"></path></svg> 