<?xml version="1.0" encoding="UTF-8"?> <svg xmlns="http://www.w3.org/2000/svg" id="Layer_1" data-name="Layer 1" viewBox="0 0 199.94 201.16"><defs><style>.cls-1{fill:#b79257;}</style></defs><title>Vadakkepeedika Logo v02 Temp 01</title><path class="cls-1" d="M100.11,153.57l-2.84-2.31a210.63,210.63,0,0,1-20.09-19.12c-13.79-15-20.79-27.81-20.79-38a4.5,4.5,0,0,1,9,0c0,14.72,22.9,37.51,34.72,47.71,11.81-10.2,34.71-33,34.71-47.71a4.5,4.5,0,0,1,9,0c0,10.15-7,22.92-20.79,38A212.58,212.58,0,0,1,103,151.26Z"></path><path class="cls-1" d="M100.11,132.28,97.27,130C94.68,127.86,72,109,72,94.18a4.5,4.5,0,0,1,9,0c0,2.4,1.39,7.91,10.64,18,3.16,3.45,6.33,6.42,8.52,8.37,8.35-7.39,19.11-19.28,19.11-26.37a4.5,4.5,0,0,1,9,0c0,14.77-22.7,33.68-25.29,35.79Z"></path><path class="cls-1" d="M100.11,112.84l-2.84-2.32C94.67,108.41,86.2,101,86.2,94.18a4.5,4.5,0,0,1,9,0c0,1.2,2.18,4.08,4.91,6.79,2.73-2.71,4.86-5.59,4.9-6.79a4.5,4.5,0,0,1,9,0c0,6.81-8.47,14.23-11.06,16.34Z"></path><path class="cls-1" d="M113.29,70.13a11.57,11.57,0,0,0-3.7-2.1,11.45,11.45,0,0,0,.67-3.9,10.63,10.63,0,0,0-.05-1.14,11.68,11.68,0,0,1-8.74,5.77A11.66,11.66,0,0,1,107.25,60,10.94,10.94,0,0,0,106.1,60a11.7,11.7,0,0,0-3.9.67,11.49,11.49,0,0,0-2.1-3.7A11.74,11.74,0,0,0,98,60.64a11.7,11.7,0,0,0-3.9-.67A10.75,10.75,0,0,0,93,60a11.69,11.69,0,0,1,5.78,8.74A11.68,11.68,0,0,1,90,63c0,.37,0,.75,0,1.14a11.7,11.7,0,0,0,.67,3.9,11.68,11.68,0,0,0-3.7,2.1,11.76,11.76,0,0,0,3.7,2.09,11.7,11.7,0,0,0-.67,3.9c0,.39,0,.77,0,1.15a11.66,11.66,0,0,1,8.75-5.78A11.69,11.69,0,0,1,93,80.23a10.75,10.75,0,0,0,1.14,0,11.45,11.45,0,0,0,3.9-.67,11.74,11.74,0,0,0,2.09,3.7,11.39,11.39,0,0,0,2.1-3.7,11.45,11.45,0,0,0,3.9.67,10.94,10.94,0,0,0,1.15,0,11.66,11.66,0,0,1-5.78-8.74,11.66,11.66,0,0,1,8.74,5.78,10.94,10.94,0,0,0,.05-1.15,11.45,11.45,0,0,0-.67-3.9A11.55,11.55,0,0,0,113.29,70.13Z"></path><path class="cls-1" d="M9.47,92.25a2.76,2.76,0,0,0,1.31,1.09c1.74.91,7.11,3.71,10.56,5.45l-.05.7c-5,1.4-9.94,2.78-11.71,3.28a1.6,1.6,0,0,0-1,.7,3.55,3.55,0,0,0-.43,1.23l-.42,0,.44-5.87.42,0c0,.66.11,1.85.56,1.89a1.66,1.66,0,0,0,.48-.06c.82-.23,4.63-1.27,9-2.53-2.73-1.4-5.55-2.87-7-3.59A4.62,4.62,0,0,0,10,94c-.62,0-1.06,1.24-1.18,2.1l-.42,0L8.77,91l.42,0A3.38,3.38,0,0,0,9.47,92.25Z"></path><path class="cls-1" d="M24.38,81.75,24,81.64c.15-.65.28-1.92-.17-2a1.24,1.24,0,0,0-.44,0l-3.21.29-1.3,4.49a19.73,19.73,0,0,0,1.79,1.31,3.55,3.55,0,0,0,1,.5c.66.19,1.36-1.15,1.58-1.78l.41.12-1.46,5-.4-.12a3.76,3.76,0,0,0,0-1.38,3.06,3.06,0,0,0-1.12-1.45c-2.76-2.21-6.18-4.84-9.26-7.24l.2-.69c5.24-.5,10.39-.94,12.28-1.12A1.62,1.62,0,0,0,25,77a3.2,3.2,0,0,0,.68-1.11L26,76ZM13.8,80.44l4.51,3.47,1.17-4Z"></path><path class="cls-1" d="M31.49,65.35l-2.95,5-.36-.22a5.79,5.79,0,0,0,.55-1.3.88.88,0,0,0-.5-1l-8.39-5a1,1,0,0,0-1.14,0,4.22,4.22,0,0,0-.93,1l-.36-.22,3.1-5.26c1.32-2.24,4.78-5.41,9.26-2.77C33.58,57.92,33.35,62.19,31.49,65.35ZM20.7,59.17c-.22.37-.61,1.07-.81,1.44l9,5.27c.86.38,1.57.22,2.31-1,1.7-2.88.36-5.43-2.58-7.16S22.32,56.42,20.7,59.17Z"></path><path class="cls-1" d="M43.68,49.33l-.3-.29c.43-.51,1.14-1.57.79-1.9a1.43,1.43,0,0,0-.36-.25l-3-1.22L37.59,49a20.38,20.38,0,0,0,1,2,4,4,0,0,0,.62.89c.49.47,1.74-.39,2.22-.84l.3.29-3.61,3.77-.3-.29a3.74,3.74,0,0,0,.66-1.21,3.12,3.12,0,0,0-.32-1.81c-1.43-3.23-3.24-7.15-4.86-10.7l.5-.52c4.88,2,9.64,4,11.4,4.7a1.72,1.72,0,0,0,1.22.08,3.36,3.36,0,0,0,1.11-.67l.3.29Zm-8.76-6.06,2.39,5.16,2.89-3Z"></path><path class="cls-1" d="M58.48,37.5l-.23-.35c.64-.45,1.48-1.07,1.1-1.68s-4.81-1.61-6.44-2l-.26.17,2.53,4a.9.9,0,0,0,1,.47,6.4,6.4,0,0,0,1.3-.49l.23.36-5,3.14-.22-.35a7,7,0,0,0,1-.87.89.89,0,0,0,0-1.1l-5.21-8.24a.89.89,0,0,0-1-.47,5.89,5.89,0,0,0-1.31.42l-.22-.35,5-3.15.22.36a6.46,6.46,0,0,0-1,.94.84.84,0,0,0,0,1.1l2.48,3.93.18-.11c1-3,1.73-6.11,1.25-6.88-.31-.48-1.37.08-1.67.25L52,26.25l4.54-2.87.22.35A3.84,3.84,0,0,0,55,26a43,43,0,0,1-1.26,5.76,67.52,67.52,0,0,1,7,1.95,4.16,4.16,0,0,0,2,.23,5.18,5.18,0,0,0,1.3-.51l.22.36Z"></path><path class="cls-1" d="M76.47,29.27l-.13-.4c.73-.27,1.7-.66,1.48-1.35S73.56,24.76,72.08,24l-.29.09,1.45,4.51a.91.91,0,0,0,.85.7,6.6,6.6,0,0,0,1.39-.15l.12.4L70,31.36l-.13-.4a6.49,6.49,0,0,0,1.21-.59.87.87,0,0,0,.27-1.06l-3-9.28a.9.9,0,0,0-.84-.71,5.68,5.68,0,0,0-1.37.09L66,19l5.6-1.81.13.4a6.91,6.91,0,0,0-1.23.65.85.85,0,0,0-.27,1.07l1.43,4.43.2-.06c1.74-2.66,3.2-5.49,2.92-6.35-.18-.55-1.34-.27-1.68-.18l-.12-.4,5.11-1.65.13.4A3.84,3.84,0,0,0,76,17.27a44.71,44.71,0,0,1-2.66,5.27,68.13,68.13,0,0,1,6.35,3.64,4,4,0,0,0,1.89.73A5.12,5.12,0,0,0,83,26.74l.13.4Z"></path><path class="cls-1" d="M100.34,25.49l-11.22.75,0-.41a7.45,7.45,0,0,0,1.48-.33.86.86,0,0,0,.53-1l-.66-9.68a.86.86,0,0,0-.65-.89,5.86,5.86,0,0,0-1.52-.24l0-.42,10.45-.71.2,2.94-.52,0c-.26-.82-1.36-2.16-2.18-2.22a14.5,14.5,0,0,0-1.58,0l-2.24.16L92.74,19l1.65-.11a1.84,1.84,0,0,0,1.55-.69,4,4,0,0,0,.47-1.79l.51,0,.36,5.29-.51,0a4.54,4.54,0,0,0-.71-1.8,1.82,1.82,0,0,0-1.63-.48l-1.65.11.28,4.17c.11,1.56.46,1.71,2.37,1.58,1.33-.09,2.66-.15,3.08-.65a9.93,9.93,0,0,0,1.36-2.76l.47,0Z"></path><path class="cls-1" d="M113.49,20.79,112,20.57l-.66,4.31a.9.9,0,0,0,.44,1,7.09,7.09,0,0,0,1.45.43l-.07.42-6-.92.06-.41a7.94,7.94,0,0,0,1.38,0,.9.9,0,0,0,.73-.85L110.85,15a.9.9,0,0,0-.44-1,6.72,6.72,0,0,0-1.38-.48l.06-.41,6.29,1c2.21.34,3.85,1.72,3.55,3.66C118.54,20.18,115.91,21.16,113.49,20.79Zm.8-6.45L113,14.15l-.9,5.85.92.14a2.75,2.75,0,0,0,3.5-2.4C116.75,16.33,116.42,14.67,114.29,14.34Z"></path><path class="cls-1" d="M133.85,33,123.37,29l.15-.39a7.3,7.3,0,0,0,1.48.33.86.86,0,0,0,.88-.66l3.5-9a.87.87,0,0,0-.22-1.08,6.32,6.32,0,0,0-1.27-.86l.15-.39,9.76,3.77-1.06,2.74-.48-.18c.11-.85-.33-2.53-1-2.93a11.94,11.94,0,0,0-1.44-.64l-2.09-.8-2,5.1,1.54.59a1.83,1.83,0,0,0,1.7,0,4,4,0,0,0,1.18-1.42l.48.19-1.91,4.94-.48-.19a4.69,4.69,0,0,0,.12-1.93A1.85,1.85,0,0,0,131.06,25l-1.54-.59L128,28.3c-.56,1.46-.3,1.74,1.49,2.43,1.24.48,2.47,1,3.06.71A9.47,9.47,0,0,0,135,29.51l.45.18Z"></path><path class="cls-1" d="M149.18,42.47l-9.31-6.31.24-.35a7.47,7.47,0,0,0,1.37.66.88.88,0,0,0,1-.44l5.45-8a.88.88,0,0,0,0-1.11,6.62,6.62,0,0,0-1.05-1.12l.24-.35,8.66,5.88-1.66,2.44-.42-.29c.29-.81.25-2.54-.36-3.09a14.17,14.17,0,0,0-1.26-.95l-1.86-1.26-3.07,4.53,1.37.93a1.82,1.82,0,0,0,1.65.4,4,4,0,0,0,1.47-1.11l.42.29-3,4.38-.43-.29a4.51,4.51,0,0,0,.55-1.85,1.82,1.82,0,0,0-1-1.38l-1.37-.93-2.34,3.46c-.88,1.28-.69,1.62.9,2.7,1.1.74,2.17,1.52,2.82,1.38A9.71,9.71,0,0,0,151,39.33l.4.26Z"></path><path class="cls-1" d="M158.27,51.16l-3.9-4.31.31-.28a5.71,5.71,0,0,0,1.09.91.86.86,0,0,0,1.08-.18l7.23-6.54a.93.93,0,0,0,.32-1.09,4.54,4.54,0,0,0-.66-1.19l.31-.28,4.1,4.54c1.74,1.93,3.74,6.17-.12,9.66C164.75,55.37,160.73,53.88,158.27,51.16Zm9.13-8.46-1.14-1.2-7.7,7c-.62.71-.68,1.43.3,2.52,2.24,2.48,5.08,2,7.61-.33S169.54,45.07,167.4,42.7Z"></path><path class="cls-1" d="M166.72,62l.36-.21a7.17,7.17,0,0,0,.87,1.09.85.85,0,0,0,1.08,0l8.42-5a.86.86,0,0,0,.48-1,6,6,0,0,0-.41-1.36l.36-.22,3,5.13-.36.22a6.6,6.6,0,0,0-.92-1.07.82.82,0,0,0-1.08,0l-8.42,5a.89.89,0,0,0-.48,1,6.28,6.28,0,0,0,.46,1.34l-.36.21Z"></path><path class="cls-1" d="M175.2,79.75l.39-.13c.29.72.7,1.68,1.38,1.45s2.68-4.31,3.41-5.81l-.1-.29-4.47,1.54a.9.9,0,0,0-.69.86,6.62,6.62,0,0,0,.18,1.38l-.4.14L173,73.32l.39-.13a7,7,0,0,0,.62,1.19.88.88,0,0,0,1.07.26l9.21-3.17a.88.88,0,0,0,.69-.86,5.64,5.64,0,0,0-.11-1.36l.4-.14,1.91,5.57-.4.13a7.29,7.29,0,0,0-.68-1.21.83.83,0,0,0-1.07-.25l-4.4,1.51.07.19c2.69,1.69,5.54,3.1,6.4,2.81.54-.19.24-1.35.15-1.68l.4-.14,1.74,5.09-.4.13a3.81,3.81,0,0,0-1.8-2.21,44.32,44.32,0,0,1-5.31-2.55,71.8,71.8,0,0,1-3.52,6.41,3.88,3.88,0,0,0-.69,1.9,4.75,4.75,0,0,0,.19,1.38l-.4.13Z"></path><path class="cls-1" d="M179.09,99.72l.42,0c.09.66.41,1.89.89,1.86a1.24,1.24,0,0,0,.43-.11l2.9-1.4-.36-4.66a21,21,0,0,0-2.14-.6,3.91,3.91,0,0,0-1.08-.13c-.68,0-.87,1.55-.86,2.22l-.41,0-.4-5.21.42,0a3.56,3.56,0,0,0,.46,1.3,3.11,3.11,0,0,0,1.56,1c3.36,1.09,7.49,2.36,11.22,3.52l.05.72c-4.73,2.3-9.4,4.53-11.11,5.36a1.67,1.67,0,0,0-.87.85,3.38,3.38,0,0,0-.24,1.28l-.42,0Zm10.37-2.49L184,95.58l.32,4.16Z"></path><path class="cls-1" d="M58.92,178.16,52,173.81l.16-.25a5.53,5.53,0,0,0,1,.44.62.62,0,0,0,.72-.35l3.76-6a.63.63,0,0,0,0-.8,3.94,3.94,0,0,0-.79-.79l.16-.26,6.44,4-1.14,1.81L62,171.5a2.63,2.63,0,0,0-.34-2.24,7.54,7.54,0,0,0-.94-.65l-1.37-.87-2.12,3.36,1,.64a1.36,1.36,0,0,0,1.21.26,3,3,0,0,0,1-.85l.32.2-2.05,3.25-.31-.19a3.42,3.42,0,0,0,.35-1.36,1.33,1.33,0,0,0-.76-1l-1-.64L55.41,174c-.6.95-.45,1.19.72,1.93.82.52,1.62,1,2.09.94a7,7,0,0,0,2-1l.29.18Z"></path><path class="cls-1" d="M67.83,182.59A3.56,3.56,0,0,1,66,181.08l-.69.41-.43-.18,1.15-3,.29.12c0,1.57.24,3.19,1.82,3.85a1.56,1.56,0,0,0,2.28-.93,1.92,1.92,0,0,0-.55-2.19c-.6-.59-.93-.89-1.51-1.51a2.47,2.47,0,0,1-.55-2.89,2.59,2.59,0,0,1,3.53-1.29,3.51,3.51,0,0,1,1.56,1.4l.68-.42.44.18-1.14,2.92-.28-.12c.09-1.65,0-3-1.73-3.71a1.36,1.36,0,0,0-1.75.8,1.9,1.9,0,0,0,.45,2.07c.48.6,1,.94,1.42,1.46.89,1,1.38,1.75.82,3.1A2.92,2.92,0,0,1,67.83,182.59Z"></path><path class="cls-1" d="M86.16,180.65c0-.63-.44-2.05-1-2.26a9.65,9.65,0,0,0-1.07-.32l-.63-.14-1.8,7.6a.69.69,0,0,0,.25.77,6.86,6.86,0,0,0,1,.49l-.07.29L78.44,186l.07-.3a5.8,5.8,0,0,0,1.14.1.64.64,0,0,0,.57-.57L82,177.59l-.63-.15a9.32,9.32,0,0,0-1.1-.2c-.6-.06-1.62,1-1.91,1.57l-.32-.07.55-2.34,8.4,2-.55,2.33Z"></path><path class="cls-1" d="M90.83,188.44a.92.92,0,1,1,1-.81A.91.91,0,0,1,90.83,188.44Z"></path><path class="cls-1" d="M107,188.56l0-.3A6.23,6.23,0,0,0,108,188a.66.66,0,0,0,.36-.68l-.64-6.16a3,3,0,0,1-.61.13,3.12,3.12,0,0,1-1.62-.67l.1-.24a3.69,3.69,0,0,0,1.48.16,4.12,4.12,0,0,0,1.86-.77l.17,0a16.09,16.09,0,0,0,0,2.08l.55,5.28a.72.72,0,0,0,.47.62,4.48,4.48,0,0,0,1.05.08l0,.3Z"></path><path class="cls-1" d="M121,178.48c-.65.17-.69-.46-1.11-1s-.44-.4-.92-.28c-1.18.29-1.83,2.32-1.54,5h.06a2.63,2.63,0,0,1,1.94-1.65,2.67,2.67,0,0,1,3.07,2.19,3,3,0,0,1-2.42,3.87c-1.57.38-3.21-.68-3.8-3.11-.79-3.22.91-6.31,3.15-6.86,1.37-.34,2,.44,2.07.91S121.52,178.36,121,178.48Zm-2.15,2.76c-.75.18-1.47,1.1-1,2.94.4,1.64,1.43,2.32,2.21,2.13,1.46-.36,1.29-2.13,1-3.22C120.73,181.66,120,181,118.86,181.24Z"></path><path class="cls-1" d="M132.9,182.39c-2.08.88-4-.44-4.83-2.49-1.1-2.61-.18-4.88,1.54-5.62,2.07-.87,3.95.41,4.83,2.49C135.54,179.36,134.65,181.64,132.9,182.39Zm-3.19-7.77c-1.07.45-1.31,2.24-.34,4.53.89,2.11,2.16,3.44,3.43,2.9,1.06-.44,1.31-2.25.34-4.53C132.28,175.49,131,174.07,129.71,174.62Z"></path><path class="cls-1" d="M145.12,176c-1.9,1.21-4,.22-5.16-1.67-1.52-2.38-1-4.77.6-5.78,1.89-1.2,3.95-.24,5.17,1.66C147.23,172.57,146.73,175,145.12,176Zm-4.41-7.14c-1,.62-.92,2.43.41,4.53,1.22,1.93,2.69,3,3.85,2.29,1-.61.93-2.43-.4-4.52C143.39,169.28,141.88,168.1,140.71,168.84Z"></path></svg> 